<svg width="104" height="104" viewBox="0 0 104 104" fill="none" xmlns="http://www.w3.org/2000/svg">
<g id="Group">
<path id="Vector" d="M18.6681 91.55C17.5681 93.55 15.8681 95.65 13.4681 97.55C12.2681 98.55 10.9681 99.45 9.46805 100.15C8.76805 100.55 7.96805 100.95 7.16805 101.25L6.76805 101.35L6.16805 101.45C5.76805 101.55 5.36805 101.65 5.06805 101.75C4.26805 101.85 3.56805 101.85 2.76805 101.95C2.66805 101.15 2.56805 100.45 2.56805 99.75C2.56805 99.35 2.56805 98.95 2.56805 98.55C2.56805 98.35 2.56805 98.15 2.66805 97.95V97.65V97.45C2.86805 96.55 3.16805 95.65 3.46805 94.85C4.16805 93.25 5.06805 91.85 5.96805 90.65C7.86805 88.25 10.0681 86.55 11.9681 85.45C13.9681 84.35 15.6681 83.75 16.8681 83.55C18.0681 83.25 18.7681 83.35 18.7681 83.25C18.7681 83.25 16.0681 84.05 12.8681 86.75C11.2681 88.15 9.56805 89.95 8.16805 92.25C7.56805 93.45 6.96805 94.75 6.46805 96.05C6.26805 96.75 6.06805 97.35 5.96805 98.05V98.15L6.16805 98.05C6.86805 97.85 7.56805 97.55 8.16805 97.25C9.46805 96.65 10.7681 95.95 11.8681 95.25C14.1681 93.75 15.9681 92.15 17.3681 90.55C18.6681 88.95 19.4681 87.45 19.7681 86.35C20.0681 85.25 20.0681 84.55 20.0681 84.55C20.0681 84.55 20.2681 85.25 20.2681 86.45C20.2681 87.65 19.7681 89.55 18.6681 91.55Z" fill="#CFAA59"/>
<path id="Vector_2" d="M21.568 83.45C19.968 83.45 19.968 80.95 21.568 80.95C23.168 80.95 23.168 83.45 21.568 83.45Z" fill="#CFAA59"/>
<path id="Vector_3" d="M12.768 89.15C15.068 89.15 15.068 92.65 12.768 92.65C10.468 92.65 10.468 89.15 12.768 89.15Z" fill="#CFAA59"/>
<path id="Vector_4" d="M31.368 74.85C31.368 74.95 31.368 75.05 31.268 75.15C31.268 75.25 31.168 75.35 31.168 75.55C31.068 75.75 31.068 76.05 30.968 76.25C30.768 76.75 30.568 77.15 30.268 77.55C29.968 77.95 29.568 78.25 29.268 78.35C28.468 78.65 27.868 78.55 27.468 78.45C27.068 78.35 26.868 78.25 26.868 78.25C26.868 78.25 27.068 78.25 27.468 78.15C27.768 78.05 28.268 77.85 28.668 77.45C28.968 77.05 29.168 76.45 29.268 75.75C29.268 75.55 29.268 75.35 29.368 75.15V74.85C29.368 74.75 29.368 74.85 29.368 74.75C29.368 74.75 29.268 74.75 29.168 74.85L28.868 74.95C28.668 75.05 28.468 75.05 28.268 75.15C27.568 75.45 27.068 75.75 26.768 76.15C26.468 76.55 26.268 77.05 26.168 77.45C26.068 77.85 26.068 78.05 26.068 78.05C26.068 78.05 25.968 77.85 25.868 77.45C25.768 77.05 25.568 76.45 25.768 75.75C25.868 75.35 26.068 74.95 26.368 74.55C26.668 74.15 27.068 73.85 27.468 73.55C27.668 73.45 27.868 73.25 28.068 73.15C28.168 73.05 28.268 73.05 28.368 72.95C28.468 72.85 28.568 72.85 28.768 72.75C29.668 72.45 30.568 72.15 31.568 71.75H31.668C31.668 72.75 31.668 73.65 31.468 74.55L31.368 74.85Z" fill="#CFAA59"/>
<path id="Vector_5" d="M30.768 82.75C30.668 82.75 30.568 82.85 30.568 82.85C30.468 82.85 30.368 82.95 30.268 82.95C30.068 83.05 29.868 83.05 29.668 83.15C29.268 83.25 28.868 83.25 28.468 83.25C28.068 83.25 27.668 83.15 27.368 82.95C26.768 82.55 26.468 82.05 26.368 81.75C26.268 81.45 26.268 81.25 26.268 81.25C26.268 81.25 26.368 81.35 26.668 81.55C26.868 81.75 27.268 81.95 27.768 82.05C28.168 82.05 28.668 81.95 29.268 81.65C29.368 81.55 29.568 81.45 29.668 81.45L29.868 81.35C29.868 81.35 29.968 81.35 29.868 81.35L29.768 81.25L29.568 81.05C29.468 80.95 29.268 80.85 29.168 80.75C28.668 80.35 28.168 80.15 27.668 80.15C27.168 80.15 26.768 80.25 26.468 80.35C26.168 80.45 25.968 80.55 25.968 80.55C25.968 80.55 26.068 80.35 26.268 80.15C26.468 79.85 26.768 79.45 27.468 79.25C27.768 79.15 28.168 79.05 28.568 79.05C28.968 79.05 29.368 79.15 29.768 79.35C29.968 79.45 30.168 79.55 30.368 79.65C30.468 79.75 30.568 79.75 30.668 79.85C30.768 79.95 30.768 79.95 30.968 80.05C31.568 80.45 32.268 80.95 32.968 81.55H33.068C32.368 82.05 31.768 82.45 31.068 82.85L30.768 82.75Z" fill="#CFAA59"/>
<path id="Vector_6" d="M24.268 77.25C23.968 77.45 23.868 77.55 23.868 77.55C23.868 77.55 23.968 77.35 24.068 77.05C24.168 76.75 24.268 76.35 24.268 75.85C24.268 75.35 24.068 74.95 23.668 74.45C23.568 74.35 23.468 74.15 23.368 74.05L23.168 73.85C23.168 73.75 23.068 73.65 23.068 73.75L22.968 73.95C22.868 74.15 22.768 74.25 22.768 74.35C22.468 74.95 22.368 75.45 22.368 75.85C22.368 76.25 22.668 76.65 22.768 76.85C22.968 77.05 23.068 77.15 23.068 77.25C23.068 77.25 22.868 77.25 22.568 77.15C22.268 77.05 21.768 76.85 21.468 76.25C21.268 75.95 21.168 75.55 21.168 75.15C21.168 74.75 21.168 74.35 21.268 73.95C21.268 73.75 21.368 73.55 21.468 73.35C21.468 73.25 21.568 73.15 21.568 73.05C21.568 73.05 21.668 72.95 21.668 72.85L21.768 72.55C22.168 71.85 22.568 71.15 22.968 70.45C23.468 71.15 23.968 71.75 24.368 72.45C24.468 72.65 24.468 72.65 24.568 72.75C24.668 72.85 24.668 72.95 24.668 73.05C24.768 73.25 24.868 73.45 24.968 73.65C25.068 74.05 25.168 74.45 25.268 74.85C25.268 75.25 25.268 75.65 25.068 75.95C24.968 76.65 24.568 77.05 24.268 77.25Z" fill="#CFAA59"/>
<g id="Group_2">
<path id="Vector_7" d="M39.068 94.95L38.768 95.25L38.568 95.45C37.768 96.15 36.968 96.75 36.168 97.35C34.468 98.35 32.668 98.95 31.168 99.15C29.668 99.35 28.468 99.15 27.668 98.85C26.868 98.65 26.468 98.45 26.468 98.45C26.468 98.45 26.868 98.45 27.668 98.35C28.468 98.25 29.468 98.05 30.668 97.55C31.868 97.05 33.168 96.25 34.468 95.15C35.068 94.55 35.768 93.95 36.368 93.25C36.468 93.15 36.368 93.15 36.368 93.15C36.368 93.15 36.068 93.15 35.868 93.15C34.968 93.05 34.068 93.15 33.268 93.25C31.668 93.45 30.268 94.15 29.268 95.05C28.268 95.85 27.568 96.85 27.168 97.45C26.768 98.15 26.568 98.55 26.568 98.55C26.568 98.55 26.568 98.05 26.768 97.25C26.968 96.45 27.268 95.25 28.168 93.95C29.068 92.65 30.668 91.25 32.668 90.55C33.668 90.25 34.868 90.05 35.968 89.95C36.268 89.95 36.468 89.95 36.968 89.95C37.468 89.95 37.968 90.05 38.468 90.15C38.968 90.25 39.468 90.35 39.968 90.45L41.268 90.85L42.168 91.15C41.568 91.95 41.168 92.65 40.568 93.45C40.268 93.85 39.968 94.25 39.568 94.55C39.468 94.65 39.268 94.85 39.068 94.95Z" fill="#CFAA59"/>
<path id="Vector_8" d="M31.268 94.35C32.868 94.65 32.368 97.15 30.768 96.75C29.168 96.45 29.668 94.05 31.268 94.35Z" fill="#CFAA59"/>
<path id="Vector_9" d="M44.468 98.75C42.868 98.75 42.868 96.25 44.468 96.25C46.168 96.25 46.168 98.75 44.468 98.75Z" fill="#CFAA59"/>
<path id="Vector_10" d="M48.568 88.45C50.768 88.45 50.768 91.95 48.568 91.95C46.268 91.95 46.268 88.45 48.568 88.45Z" fill="#CFAA59"/>
<path id="Vector_11" d="M55.668 93.05C55.668 93.05 55.568 95.05 55.268 96.05C54.768 97.55 54.068 99.15 52.968 100.45C52.568 100.85 52.068 101.25 51.668 101.65C50.468 102.35 49.068 102.75 47.868 102.75C46.668 102.85 45.568 102.65 44.568 102.25C43.768 101.95 42.968 101.35 42.468 100.75C41.468 99.45 41.368 98.15 41.368 97.45C41.368 96.65 41.568 96.25 41.568 96.25C41.568 96.25 41.468 96.65 41.568 97.45C41.668 98.25 41.868 99.45 42.968 100.45C44.068 101.45 45.968 102.05 48.068 101.65C49.068 101.45 50.168 101.05 50.968 100.25C51.168 100.15 51.268 99.95 51.368 99.85C51.368 99.85 53.568 97.15 53.368 93.45C53.368 93.35 53.668 90.85 51.768 89.05C50.368 87.75 47.968 84.55 39.568 84.75C39.468 84.95 39.368 85.05 39.268 85.25C39.168 85.35 39.068 85.55 38.968 85.65C38.868 85.75 38.768 85.75 38.668 85.85C38.868 85.85 39.168 85.85 39.368 85.85C40.468 85.95 41.368 86.35 42.268 86.75C43.068 87.25 43.868 87.85 44.368 88.55C44.868 89.25 45.068 90.15 44.968 90.75C44.868 91.35 44.768 91.55 44.768 91.55C44.768 91.55 44.768 91.25 44.668 90.85C44.568 90.45 44.168 90.05 43.668 89.65C42.568 88.65 40.568 87.95 37.568 87.85L34.268 88.05C34.068 88.05 33.968 88.15 33.768 88.15C32.468 88.25 30.368 88.65 30.368 88.65C30.368 88.65 32.468 87.65 33.568 86.85C34.268 86.35 35.168 85.65 36.168 84.85C34.668 85.15 33.168 85.75 31.768 86.45C30.868 86.95 29.768 87.25 28.868 87.75C31.768 85.35 34.968 83.85 38.068 83.15C38.168 83.05 38.268 82.85 38.468 82.65C38.768 82.25 38.968 81.85 39.168 81.45C39.568 80.65 39.868 79.85 39.868 79.25C39.968 78.55 39.768 78.05 39.568 77.65C39.368 77.25 39.168 77.15 39.268 77.15C39.268 77.15 39.468 77.15 39.768 77.35C40.068 77.55 40.668 77.95 40.868 79.05C41.068 80.05 40.968 81.35 40.568 82.55C40.568 82.65 40.568 82.65 40.468 82.75C40.968 82.65 41.368 82.65 41.868 82.65C53.368 82.15 55.668 91.25 55.668 93.05Z" fill="#CFAA59"/>
<path id="Vector_12" d="M66.668 98.45C69.868 97.55 73.468 97.25 77.268 97.65C77.768 97.65 78.168 97.75 78.568 97.75C78.268 97.55 77.968 97.35 77.568 97.15C76.568 96.65 75.368 96.35 73.868 96.15C71.068 95.75 67.468 96.05 63.568 97.15C62.568 97.45 61.668 97.75 60.568 98.15C59.468 98.55 58.368 98.95 57.168 99.25C56.168 99.55 55.068 99.75 53.768 99.85C54.368 98.85 54.868 97.85 55.268 96.75C55.668 96.65 56.168 96.65 56.568 96.55C57.668 96.35 58.768 96.05 59.868 95.75C60.868 95.45 62.068 95.15 63.168 94.95C67.468 94.15 71.268 94.25 74.168 94.95C75.668 95.35 76.868 95.85 77.868 96.45C78.468 96.85 78.968 97.25 79.368 97.75C82.268 98.25 84.968 99.15 87.368 99.75C88.868 100.15 90.368 100.45 91.768 100.65C93.168 100.85 94.468 100.95 95.568 100.85C97.968 100.75 99.868 100.25 101.168 99.85C102.468 99.45 103.168 99.15 103.168 99.15C103.168 99.15 102.568 99.55 101.268 100.15C100.068 100.75 98.168 101.45 95.668 101.85C94.468 102.05 93.068 102.05 91.568 101.95C90.068 101.85 88.568 101.65 86.968 101.25C84.968 100.85 82.868 100.25 80.668 99.85V99.95H80.568C80.568 99.95 80.568 99.95 80.568 99.85C79.368 99.65 78.168 99.35 76.868 99.25C73.268 98.85 69.868 99.05 66.768 99.75C63.668 100.35 60.968 101.35 58.568 101.85C56.168 102.35 54.168 102.55 52.768 102.55C51.368 102.55 50.668 102.35 50.668 102.45C50.668 102.45 53.768 102.55 58.268 101.05C60.868 100.35 63.468 99.25 66.668 98.45Z" fill="#CFAA59"/>
<path id="Vector_13" d="M68.268 93.35C67.768 93.05 67.168 92.95 66.368 92.85C65.568 92.85 64.668 92.95 63.568 93.15C61.468 93.55 59.068 94.45 55.968 95.25H55.868C55.968 94.95 56.068 94.55 56.068 94.15V94.05C56.068 93.75 56.168 93.35 56.168 93.05C58.968 92.65 61.468 92.15 63.568 92.05C64.668 92.05 65.668 92.05 66.468 92.25C67.268 92.45 67.968 92.75 68.468 93.15C68.968 93.55 69.168 93.85 69.368 94.15C69.568 94.35 69.568 94.55 69.568 94.55C69.568 94.55 69.468 94.45 69.268 94.25C69.068 93.85 68.768 93.55 68.268 93.35Z" fill="#CFAA59"/>
<path id="Vector_14" d="M47.5681 93.75C47.1681 93.25 46.8681 92.65 46.5681 92.15C46.9681 92.85 47.6681 93.35 48.6681 93.35C49.4681 93.35 50.0681 93.05 50.4681 92.55C50.6681 92.75 50.9681 92.85 51.2681 92.95C51.6681 93.05 52.1681 93.15 52.6681 93.15C52.8681 94.35 52.4681 95.85 52.4681 95.85C51.1681 95.55 48.3681 94.75 47.5681 93.75Z" fill="#CFAA59"/>
<path id="Vector_15" d="M50.5681 99.45C50.0681 99.15 49.5681 98.65 49.3681 98.05C49.2681 97.75 49.1681 97.45 49.1681 97.15C49.1681 96.85 49.1681 96.25 48.5681 95.65L52.4681 96.75C52.4681 96.85 51.5681 98.95 50.8681 99.65C50.7681 99.45 50.6681 99.45 50.5681 99.45Z" fill="#CFAA59"/>
<path id="Vector_16" d="M60.968 84.75H60.668C60.468 84.75 60.368 84.75 60.168 84.85C59.568 84.95 59.068 85.15 58.668 85.45C58.368 85.75 58.168 86.15 58.068 86.45C57.968 86.75 57.968 86.95 57.968 86.95C57.968 86.95 57.868 86.75 57.768 86.45C57.668 86.15 57.568 85.55 57.868 84.85C57.968 84.55 58.268 84.15 58.568 83.95C58.868 83.65 59.268 83.45 59.668 83.25C59.868 83.15 60.068 83.05 60.268 83.05C60.368 83.05 60.468 82.95 60.568 82.95C60.568 82.95 60.768 82.95 60.768 82.85H61.068C61.868 82.75 62.668 82.75 63.468 82.65V82.75C63.168 83.55 62.968 84.45 62.668 85.15C62.568 85.35 62.568 85.45 62.568 85.55C62.568 85.65 62.468 85.75 62.468 85.85C62.368 86.05 62.268 86.25 62.168 86.45C61.968 86.85 61.668 87.15 61.368 87.45C61.068 87.75 60.668 87.95 60.368 87.95C59.668 88.15 59.168 88.05 58.868 87.95C58.568 87.85 58.368 87.75 58.368 87.75C58.368 87.75 58.568 87.75 58.868 87.65C59.168 87.55 59.568 87.45 59.968 87.15C60.368 86.85 60.568 86.35 60.768 85.75C60.768 85.55 60.868 85.45 60.868 85.25L60.968 84.95C60.968 84.95 61.068 84.75 60.968 84.75Z" fill="#CFAA59"/>
<path id="Vector_17" d="M55.068 87.25C55.268 87.45 55.368 87.55 55.368 87.55C55.368 87.55 55.168 87.55 54.968 87.45C54.668 87.35 54.268 87.15 53.968 86.65C53.768 86.35 53.668 86.05 53.668 85.75C53.668 85.35 53.668 85.05 53.768 84.65C53.768 84.45 53.868 84.25 53.868 84.15C53.868 84.05 53.968 83.95 53.968 83.85C53.968 83.85 54.068 83.75 54.068 83.65L54.168 83.45C54.468 82.85 54.868 82.25 55.268 81.65C55.768 82.25 56.168 82.85 56.568 83.35C56.668 83.55 56.668 83.55 56.768 83.65C56.768 83.75 56.868 83.85 56.868 83.85C56.968 84.05 57.068 84.15 57.068 84.35C57.168 84.65 57.268 85.05 57.368 85.45C57.368 85.85 57.368 86.15 57.268 86.45C57.068 87.05 56.768 87.35 56.468 87.55C56.268 87.75 56.168 87.75 56.168 87.75C56.168 87.75 56.268 87.65 56.368 87.35C56.468 87.05 56.568 86.75 56.568 86.35C56.568 85.95 56.368 85.55 56.068 85.05C55.968 84.95 55.868 84.85 55.768 84.75L55.668 84.55C55.668 84.45 55.568 84.35 55.568 84.45L55.468 84.65C55.368 84.75 55.368 84.95 55.268 85.05C55.068 85.55 54.868 85.95 54.968 86.35C54.768 86.75 54.968 87.05 55.068 87.25Z" fill="#CFAA59"/>
<path id="Vector_18" d="M64.868 90.15C64.268 90.55 63.668 90.95 63.068 91.25L62.868 91.35C62.768 91.35 62.668 91.45 62.668 91.45C62.568 91.45 62.468 91.55 62.368 91.55C62.168 91.65 61.968 91.65 61.868 91.75C61.468 91.85 61.168 91.85 60.768 91.85C60.368 91.85 60.068 91.75 59.868 91.65C59.368 91.35 59.168 90.95 59.068 90.65C58.968 90.35 58.968 90.25 58.968 90.25C58.968 90.25 59.068 90.35 59.268 90.55C59.468 90.75 59.768 90.85 60.168 90.95C60.568 90.95 60.968 90.85 61.468 90.55C61.568 90.45 61.668 90.45 61.868 90.35L62.068 90.25L61.968 90.15L61.768 89.85C61.668 89.75 61.568 89.65 61.468 89.65C61.068 89.35 60.568 89.15 60.168 89.15C59.768 89.15 59.368 89.25 59.168 89.35C58.868 89.45 58.768 89.55 58.768 89.55C58.768 89.55 58.868 89.45 58.968 89.15C59.168 88.95 59.468 88.55 59.968 88.35C60.268 88.25 60.568 88.15 60.968 88.15C61.368 88.15 61.668 88.25 62.068 88.35C62.268 88.45 62.368 88.45 62.568 88.55C62.668 88.55 62.768 88.65 62.768 88.65C62.868 88.65 62.868 88.75 63.068 88.85C63.668 89.25 64.268 89.65 64.868 90.15Z" fill="#CFAA59"/>
<path id="Vector_19" d="M56.968 88.25C58.568 88.25 58.568 90.75 56.968 90.75C55.368 90.75 55.368 88.25 56.968 88.25Z" fill="#CFAA59"/>
<path id="Vector_20" d="M12.668 102.15C14.168 101.95 15.968 101.55 17.568 100.55C18.368 100.15 19.068 99.55 19.768 98.95C20.368 98.45 20.868 97.95 21.368 97.35C21.668 97.05 21.868 96.75 22.168 96.35C22.868 95.45 23.368 94.45 23.768 93.55C24.168 92.55 24.568 91.65 24.768 90.65C25.268 88.75 25.468 86.85 25.368 85.35C25.368 83.75 25.068 82.55 24.768 81.75C24.468 80.95 24.168 80.55 24.168 80.55C24.168 80.55 24.568 80.85 25.068 81.65C25.568 82.35 26.168 83.65 26.568 85.25C26.968 86.85 27.068 88.85 26.768 91.05C26.568 92.15 26.368 93.25 25.868 94.45C25.468 95.55 24.868 96.75 24.068 97.75C23.968 97.85 23.968 97.95 23.868 97.95C23.368 98.55 22.868 99.15 22.268 99.75C21.068 100.85 19.768 101.75 18.368 102.35C16.268 103.25 14.168 103.45 12.568 103.35C11.068 103.15 9.76803 102.75 8.86803 102.45C8.06803 102.15 7.66803 101.95 7.66803 101.95C7.66803 101.95 8.16803 102.05 9.06803 102.15C9.86803 102.25 11.168 102.35 12.668 102.15Z" fill="#CFAA59"/>
<path id="Vector_21" d="M24.568 98.45C25.668 98.85 26.668 99.25 27.668 99.75C28.168 99.95 28.668 100.25 29.168 100.55C29.468 100.65 29.668 100.75 29.868 100.85C30.068 100.95 30.268 101.05 30.568 101.15C31.468 101.45 32.368 101.65 33.268 101.75C35.068 101.85 36.668 101.55 37.868 100.95C39.068 100.35 39.868 99.45 40.268 98.75C40.668 98.05 40.768 97.55 40.768 97.55C40.768 97.55 40.768 98.05 40.568 98.85C40.368 99.65 39.768 100.85 38.468 101.95C37.168 102.95 35.368 103.75 33.168 103.75C32.068 103.75 30.968 103.65 29.768 103.35C29.468 103.25 29.168 103.15 28.968 103.05C28.668 102.95 28.368 102.75 28.168 102.65L26.668 101.95C25.668 101.45 24.668 101.05 23.768 100.65C23.468 100.55 23.068 100.35 22.768 100.25C23.368 99.75 23.868 99.15 24.368 98.45C24.368 98.45 24.468 98.45 24.568 98.45Z" fill="#CFAA59"/>
<path id="Vector_22" d="M19.2681 98.75L18.6681 98.55C18.2681 98.45 17.8681 98.35 17.4681 98.35C16.6681 98.25 15.9681 98.35 15.2681 98.55C13.9681 98.85 12.9681 99.55 12.3681 100.05C11.7681 100.65 11.5681 101.05 11.5681 101.05C11.5681 101.05 11.6681 100.55 12.0681 99.85C12.4681 99.15 13.3681 98.05 14.8681 97.45C15.5681 97.15 16.4681 96.85 17.4681 96.75C17.9681 96.75 18.4681 96.75 18.9681 96.75C19.4681 96.85 19.8681 96.85 20.4681 96.95C20.5681 96.95 20.7681 97.05 20.8681 97.05C20.3681 97.75 19.8681 98.25 19.2681 98.75Z" fill="#CFAA59"/>
</g>
<g id="Group_3">
<path id="Vector_23" d="M9.66806 64.65L9.36806 64.95L9.16806 65.15C8.46806 65.95 7.76806 66.75 7.26806 67.65C6.16806 69.35 5.56806 71.05 5.36806 72.55C5.16806 74.05 5.36806 75.25 5.56806 76.05C5.76806 76.75 5.96806 77.15 5.96806 77.15C5.96806 77.15 5.96806 76.75 6.06806 75.95C6.16806 75.15 6.36806 74.15 6.96806 72.95C7.46806 71.75 8.36806 70.45 9.46806 69.25C10.0681 68.65 10.6681 68.05 11.3681 67.35C11.4681 67.25 11.4681 67.25 11.4681 67.35C11.4681 67.35 11.4681 67.65 11.4681 67.85C11.4681 68.75 11.4681 69.65 11.2681 70.45C10.9681 72.05 10.2681 73.45 9.46806 74.45C8.56806 75.45 7.66806 76.15 6.96806 76.55C6.26806 76.95 5.86806 77.15 5.86806 77.15C5.86806 77.15 6.36806 77.15 7.16806 77.05C7.96806 76.95 9.16806 76.65 10.5681 75.75C11.8681 74.95 13.2681 73.35 14.0681 71.25C14.4681 70.25 14.6681 69.15 14.6681 67.95C14.6681 67.65 14.6681 67.45 14.6681 66.95C14.6681 66.45 14.5681 65.95 14.5681 65.45C14.4681 64.95 14.3681 64.45 14.2681 63.95L13.8681 62.65L13.5681 61.75C12.7681 62.25 12.0681 62.75 11.2681 63.35C10.8681 63.65 10.4681 63.95 10.1681 64.25C10.0681 64.25 9.86806 64.45 9.66806 64.65Z" fill="#CFAA59"/>
<path id="Vector_24" d="M10.1681 72.45C9.86806 70.85 7.36806 71.35 7.66806 72.95C7.96806 74.55 10.4681 74.05 10.1681 72.45Z" fill="#CFAA59"/>
<path id="Vector_25" d="M6.06805 59.15C6.06805 60.75 8.56805 60.85 8.56805 59.25C8.56805 57.55 6.06805 57.55 6.06805 59.15Z" fill="#CFAA59"/>
<path id="Vector_26" d="M16.368 55.35C16.468 53.05 12.968 53.05 12.868 55.25C12.868 57.45 16.368 57.55 16.368 55.35Z" fill="#CFAA59"/>
<path id="Vector_27" d="M11.9681 48.05C11.9681 48.05 9.96807 48.15 8.96807 48.45C7.46807 48.95 5.76807 49.65 4.56807 50.65C4.16807 51.05 3.76807 51.45 3.36807 51.95C2.56807 53.15 2.06807 54.45 2.06807 55.65C1.96807 56.85 2.16807 57.95 2.46807 58.95C2.76807 59.95 3.36807 60.65 3.96807 61.15C5.26807 62.25 6.56807 62.35 7.26807 62.35C8.06807 62.35 8.46807 62.25 8.46807 62.25C8.46807 62.25 8.06807 62.35 7.26807 62.25C6.46807 62.15 5.26807 61.85 4.26807 60.75C3.26807 59.65 2.76807 57.75 3.16807 55.65C3.36807 54.65 3.86807 53.55 4.66807 52.75C4.76807 52.65 4.96807 52.45 5.16807 52.35C5.16807 52.35 7.86807 50.15 11.5681 50.55C11.6681 50.55 14.1681 50.25 15.9681 52.25C17.2681 53.75 20.3681 56.15 19.9681 64.55C19.7681 64.65 19.6681 64.75 19.4681 64.85C19.3681 64.95 19.1681 65.05 19.0681 65.15C18.9681 65.25 18.8681 65.35 18.7681 65.45C18.7681 65.25 18.7681 64.95 18.7681 64.75C18.6681 63.65 18.3681 62.65 17.8681 61.85C17.3681 61.05 16.7681 60.25 16.0681 59.75C15.3681 59.25 14.4681 58.95 13.8681 59.05C13.2681 59.15 13.0681 59.25 13.0681 59.25C13.0681 59.25 13.3681 59.25 13.7681 59.35C14.1681 59.45 14.4681 59.85 14.8681 60.35C15.8681 61.45 16.4681 63.45 16.4681 66.45L16.1681 69.75C16.1681 69.95 16.0681 70.05 16.0681 70.25C15.8681 71.55 15.5681 73.65 15.5681 73.65C15.5681 73.65 16.5681 71.55 17.3681 70.55C17.8681 69.85 18.5681 68.95 19.4681 68.05C19.1681 69.55 18.5681 71.05 17.7681 72.45C17.2681 73.35 16.9681 74.45 16.4681 75.35C18.9681 72.45 20.4681 69.35 21.2681 66.25C21.4681 66.15 21.5681 66.05 21.7681 65.85C22.1681 65.55 22.5681 65.35 22.9681 65.15C23.7681 64.75 24.5681 64.55 25.1681 64.45C25.8681 64.35 26.3681 64.55 26.7681 64.75C27.0681 64.95 27.2681 65.15 27.2681 65.15C27.2681 65.15 27.2681 64.95 27.0681 64.65C26.8681 64.35 26.4681 63.75 25.4681 63.55C24.4681 63.25 23.1681 63.35 21.9681 63.75C21.8681 63.75 21.8681 63.75 21.7681 63.85C21.8681 63.35 21.8681 62.95 21.8681 62.45C22.8681 50.65 13.7681 48.15 11.9681 48.05Z" fill="#CFAA59"/>
<path id="Vector_28" d="M6.86804 36.95C7.76804 33.85 8.26804 30.15 7.96804 26.35C7.96804 25.95 7.86804 25.45 7.86804 25.05C8.06804 25.35 8.26804 25.75 8.46804 26.05C8.96804 27.05 9.26804 28.25 9.36804 29.75C9.66804 32.55 9.26804 36.15 8.06804 40.05C7.76804 41.05 7.36804 41.95 6.96804 43.05C6.56804 44.15 6.16804 45.25 5.76804 46.45C5.46804 47.45 5.16804 48.55 5.06804 49.85C6.06804 49.25 7.06804 48.75 8.16804 48.35C8.26804 47.95 8.36804 47.45 8.36804 47.05C8.66804 45.95 8.96804 44.85 9.26804 43.75C9.56804 42.75 9.96804 41.55 10.168 40.55C11.068 36.25 11.068 32.55 10.368 29.55C10.068 28.05 9.56804 26.75 8.86804 25.75C8.46804 25.15 8.06804 24.65 7.66804 24.15C7.16804 21.25 6.46804 18.55 5.86804 16.05C5.46804 14.55 5.16804 13.05 5.06804 11.65C4.86804 10.25 4.76804 8.95002 4.86804 7.75002C5.06804 5.35002 5.56804 3.45002 5.96804 2.25002C6.36804 0.95002 6.76804 0.250019 6.76804 0.250019C6.76804 0.250019 6.36804 0.850021 5.76804 2.15002C5.16804 3.35002 4.36804 5.25002 3.96804 7.65002C3.76804 8.95002 3.66804 10.25 3.76804 11.75C3.86804 13.25 4.06804 14.75 4.36804 16.35C4.76804 18.35 5.26804 20.45 5.66804 22.65C5.66804 22.65 5.66804 22.65 5.56804 22.65V22.75C5.56804 22.75 5.56804 22.75 5.66804 22.75C5.86804 23.95 6.06804 25.15 6.16804 26.45C6.46804 30.05 6.16804 33.45 5.46804 36.55C4.76804 39.65 3.76804 42.35 3.16804 44.75C2.56804 47.15 2.36804 49.15 2.36804 50.45C2.36804 51.85 2.46804 52.55 2.46804 52.55C2.46804 52.55 2.36804 49.45 4.06804 44.95C4.76804 42.75 5.96804 40.15 6.86804 36.95Z" fill="#CFAA59"/>
<path id="Vector_29" d="M11.968 35.45C12.168 35.95 12.368 36.65 12.368 37.45C12.368 38.25 12.268 39.15 12.068 40.15C11.668 42.25 10.668 44.65 9.86804 47.65V47.75C10.168 47.65 10.568 47.65 10.968 47.55H11.068C11.368 47.55 11.768 47.45 12.068 47.55C12.468 44.75 13.068 42.35 13.168 40.25C13.268 39.15 13.168 38.15 13.068 37.25C12.868 36.45 12.568 35.75 12.268 35.25C11.868 34.75 11.568 34.55 11.368 34.35C11.168 34.15 10.968 34.15 10.968 34.15C10.968 34.15 11.068 34.25 11.268 34.45C11.468 34.65 11.768 34.95 11.968 35.45Z" fill="#CFAA59"/>
<path id="Vector_30" d="M11.0681 56.15C11.5681 56.55 12.0681 56.95 12.6681 57.15C11.9681 56.75 11.4681 56.05 11.4681 55.05C11.4681 54.25 11.8681 53.65 12.3681 53.25C12.1681 53.05 12.0681 52.75 11.9681 52.45C11.8681 52.05 11.7681 51.55 11.7681 51.05C10.5681 50.85 9.06805 51.25 9.06805 51.25C9.46805 52.55 10.0681 55.35 11.0681 56.15Z" fill="#CFAA59"/>
<path id="Vector_31" d="M5.56802 53.05C5.86802 53.55 6.36802 54.05 6.96802 54.25C7.26802 54.35 7.56802 54.45 7.86802 54.45C8.16802 54.45 8.76802 54.45 9.36802 55.15L8.36802 51.25C8.26802 51.25 6.16802 52.15 5.46802 52.75C5.46802 52.85 5.46802 52.95 5.56802 53.05Z" fill="#CFAA59"/>
<path id="Vector_32" d="M20.4681 42.95V43.25C20.4681 43.45 20.4681 43.55 20.3681 43.75C20.2681 44.35 20.0681 44.85 19.7681 45.25C19.4681 45.55 19.0681 45.75 18.7681 45.85C18.4681 45.95 18.2681 45.95 18.2681 45.95C18.2681 45.95 18.4681 46.05 18.7681 46.15C19.0681 46.25 19.6681 46.35 20.2681 46.15C20.5681 46.05 20.9681 45.75 21.1681 45.45C21.4681 45.15 21.6681 44.75 21.8681 44.35C21.9681 44.15 22.0681 43.95 22.0681 43.75C22.0681 43.65 22.1681 43.55 22.1681 43.45C22.1681 43.45 22.1681 43.25 22.2681 43.25L22.3681 42.95C22.4681 42.15 22.5681 41.35 22.6681 40.55H22.5681C21.7681 40.75 20.8681 41.05 20.1681 41.25C19.9681 41.35 19.8681 41.35 19.7681 41.35C19.6681 41.35 19.5681 41.45 19.4681 41.45C19.2681 41.55 19.0681 41.65 18.8681 41.75C18.4681 41.95 18.1681 42.25 17.8681 42.55C17.5681 42.85 17.3681 43.25 17.2681 43.55C17.0681 44.25 17.1681 44.75 17.2681 45.05C17.3681 45.35 17.4681 45.55 17.4681 45.55C17.4681 45.55 17.4681 45.35 17.5681 45.05C17.6681 44.75 17.7681 44.35 18.1681 43.95C18.4681 43.55 18.9681 43.35 19.5681 43.15C19.7681 43.15 19.8681 43.05 20.0681 43.05L20.3681 42.95C20.2681 42.95 20.3681 42.85 20.4681 42.95C20.3681 42.95 20.3681 42.95 20.4681 42.95C20.3681 42.95 20.3681 42.95 20.4681 42.95Z" fill="#CFAA59"/>
<path id="Vector_33" d="M17.768 48.75C17.568 48.55 17.468 48.45 17.468 48.45C17.468 48.45 17.468 48.65 17.568 48.85C17.668 49.15 17.868 49.55 18.368 49.95C18.668 50.15 18.968 50.25 19.268 50.25C19.668 50.25 19.968 50.25 20.368 50.25C20.568 50.25 20.768 50.15 20.868 50.15C20.968 50.15 21.068 50.05 21.168 50.05C21.168 50.05 21.268 49.95 21.368 49.95L21.568 49.85C22.168 49.55 22.768 49.15 23.368 48.85C22.768 48.35 22.168 47.95 21.668 47.45C21.468 47.35 21.468 47.35 21.368 47.25C21.268 47.25 21.168 47.15 21.168 47.15C20.968 47.05 20.868 46.95 20.668 46.85C20.368 46.65 19.968 46.55 19.568 46.55C19.168 46.55 18.868 46.55 18.568 46.65C17.968 46.85 17.668 47.15 17.468 47.35C17.268 47.55 17.168 47.75 17.168 47.75C17.168 47.75 17.268 47.65 17.568 47.55C17.868 47.45 18.168 47.35 18.568 47.45C18.968 47.45 19.368 47.65 19.768 48.05C19.868 48.15 19.968 48.25 20.068 48.35L20.268 48.55C20.268 48.55 20.468 48.65 20.368 48.65V48.75C20.268 48.85 20.068 48.85 19.968 48.95C19.468 49.15 19.068 49.25 18.668 49.25C18.268 49.15 17.968 48.95 17.768 48.75Z" fill="#CFAA59"/>
<path id="Vector_34" d="M15.068 38.95C14.668 39.55 14.268 40.05 13.968 40.65L13.868 40.85C13.868 40.95 13.768 41.05 13.768 41.05C13.768 41.15 13.668 41.25 13.668 41.35C13.568 41.55 13.568 41.75 13.468 41.85C13.368 42.25 13.368 42.55 13.368 42.95C13.368 43.35 13.468 43.65 13.568 43.85C13.868 44.35 14.268 44.65 14.468 44.75C14.768 44.85 14.868 44.85 14.868 44.85C14.868 44.85 14.768 44.75 14.568 44.55C14.368 44.35 14.268 44.05 14.168 43.65C14.168 43.25 14.268 42.85 14.568 42.35C14.668 42.25 14.668 42.05 14.768 41.95L14.868 41.75L14.968 41.85L15.068 42.05C15.168 42.15 15.268 42.25 15.268 42.45C15.568 42.95 15.668 43.35 15.668 43.75C15.668 44.15 15.568 44.55 15.468 44.75C15.368 45.05 15.268 45.15 15.268 45.15C15.268 45.15 15.368 45.05 15.668 44.95C15.868 44.75 16.268 44.45 16.468 43.95C16.568 43.65 16.668 43.35 16.668 42.95C16.668 42.55 16.568 42.25 16.468 41.85C16.368 41.65 16.368 41.55 16.268 41.35C16.268 41.25 16.168 41.15 16.168 41.15C16.068 41.05 16.068 41.05 15.968 40.85C15.968 40.25 15.568 39.55 15.068 38.95Z" fill="#CFAA59"/>
<path id="Vector_35" d="M16.7681 46.85C16.7681 45.25 14.2681 45.15 14.2681 46.75C14.2681 48.45 16.7681 48.45 16.7681 46.85Z" fill="#CFAA59"/>
<path id="Vector_36" d="M1.96804 90.95C2.16804 89.45 2.66804 87.65 3.66804 86.05C4.06804 85.25 4.66804 84.55 5.26804 83.85C5.76804 83.25 6.36804 82.75 6.96804 82.25C7.26804 81.95 7.56804 81.75 7.96804 81.55C8.86804 80.95 9.86804 80.35 10.868 79.95C11.868 79.55 12.868 79.25 13.768 79.05C15.668 78.65 17.568 78.45 19.068 78.55C20.568 78.65 21.768 78.95 22.568 79.35C23.368 79.65 23.768 79.95 23.768 79.95C23.768 79.95 23.468 79.55 22.768 79.05C22.068 78.55 20.868 77.85 19.268 77.45C17.668 77.05 15.668 76.85 13.468 77.15C12.368 77.25 11.268 77.55 10.068 77.95C8.86804 78.35 7.76804 78.95 6.66804 79.65C6.56804 79.75 6.46804 79.75 6.46804 79.85C5.76804 80.35 5.16804 80.85 4.66804 81.35C3.46804 82.55 2.56804 83.85 1.96804 85.15C0.968036 87.25 0.768036 89.25 0.868036 90.95C0.968036 92.65 1.26804 93.85 1.56804 94.75C1.76804 95.55 2.06804 95.95 1.96804 95.95C1.96804 95.95 1.86804 95.45 1.86804 94.55C1.76804 93.75 1.76804 92.45 1.96804 90.95Z" fill="#CFAA59"/>
<path id="Vector_37" d="M5.86804 79.05C5.56804 77.95 5.06804 76.95 4.56804 75.95C4.36804 75.45 4.06804 74.95 3.86804 74.45C3.76804 74.15 3.66804 73.95 3.56804 73.75C3.46804 73.55 3.36804 73.35 3.26804 73.05C2.96804 72.15 2.76804 71.25 2.76804 70.35C2.66804 68.65 3.06804 66.95 3.76804 65.75C4.36804 64.55 5.36804 63.75 6.06804 63.45C6.76804 63.05 7.26804 62.95 7.26804 62.95C7.26804 62.95 6.76804 62.95 5.96804 63.15C5.16804 63.35 3.86804 63.95 2.86804 65.15C1.86804 66.35 1.06804 68.25 0.868038 70.35C0.768038 71.45 0.868038 72.55 1.26804 73.75C1.36804 74.05 1.46804 74.35 1.56804 74.65C1.66804 74.95 1.76804 75.25 1.86804 75.45L2.56804 76.95C3.06804 77.95 3.46804 78.95 3.86804 79.85C3.96804 80.15 4.16804 80.55 4.26804 80.85C4.86804 80.25 5.46804 79.75 6.06804 79.35C5.96804 79.25 5.86804 79.15 5.86804 79.05Z" fill="#CFAA59"/>
<path id="Vector_38" d="M5.46802 84.35L5.56802 84.95C5.66802 85.35 5.76802 85.75 5.76802 86.15C5.76802 86.95 5.76802 87.65 5.56802 88.35C5.26802 89.65 4.56802 90.65 3.96802 91.15C3.36802 91.75 2.96802 91.95 2.96802 91.95C2.96802 91.95 3.46802 91.85 4.16802 91.45C4.96802 91.05 5.96802 90.15 6.66802 88.75C6.96802 88.05 7.26802 87.15 7.36802 86.15C7.46802 85.65 7.46802 85.15 7.36802 84.65C7.26802 84.15 7.26802 83.65 7.16802 83.15C7.16802 83.05 7.16802 82.85 7.06802 82.75C6.46802 83.35 5.96802 83.85 5.46802 84.35Z" fill="#CFAA59"/>
</g>
</g>
</svg>
