<svg width="104" height="104" viewBox="0 0 104 104" fill="none" xmlns="http://www.w3.org/2000/svg">
<g id="Group">
<path id="Vector" d="M18.6681 12.45C17.5681 10.45 15.8681 8.34999 13.4681 6.44999C12.2681 5.44999 10.9681 4.54999 9.46805 3.84999C8.76805 3.44999 7.96805 3.04999 7.16805 2.74999L6.76805 2.64999L6.16805 2.54999C5.76805 2.44999 5.36805 2.34999 5.06805 2.24999C4.26805 2.14999 3.56805 2.14999 2.76805 2.04999C2.66805 2.84999 2.56805 3.54999 2.56805 4.24999C2.56805 4.64999 2.56805 5.04999 2.56805 5.44999C2.56805 5.64999 2.56805 5.84999 2.66805 6.04999V6.34999V6.54999C2.86805 7.44999 3.16805 8.34999 3.46805 9.14999C4.16805 10.75 5.06805 12.15 5.96805 13.35C7.86805 15.75 10.0681 17.45 11.9681 18.55C13.9681 19.65 15.6681 20.25 16.8681 20.45C18.0681 20.75 18.7681 20.65 18.7681 20.75C18.7681 20.75 16.0681 19.95 12.8681 17.25C11.2681 15.85 9.56805 14.05 8.16805 11.75C7.56805 10.55 6.96805 9.24999 6.46805 7.94999C6.26805 7.24999 6.06805 6.64999 5.96805 5.94999V5.84999L6.16805 5.94999C6.86805 6.14999 7.56805 6.44999 8.16805 6.74999C9.46805 7.34999 10.7681 8.04999 11.8681 8.74999C14.1681 10.25 15.9681 11.85 17.3681 13.45C18.6681 15.05 19.4681 16.55 19.7681 17.65C20.0681 18.75 20.0681 19.45 20.0681 19.45C20.0681 19.45 20.2681 18.75 20.2681 17.55C20.2681 16.35 19.7681 14.45 18.6681 12.45Z" fill="#CFAA59"/>
<path id="Vector_2" d="M21.568 20.55C19.968 20.55 19.968 23.05 21.568 23.05C23.168 23.05 23.168 20.55 21.568 20.55Z" fill="#CFAA59"/>
<path id="Vector_3" d="M12.768 14.85C15.068 14.85 15.068 11.35 12.768 11.35C10.468 11.35 10.468 14.85 12.768 14.85Z" fill="#CFAA59"/>
<path id="Vector_4" d="M31.368 29.15C31.368 29.05 31.368 28.95 31.268 28.85C31.268 28.75 31.168 28.65 31.168 28.45C31.068 28.25 31.068 27.95 30.968 27.75C30.768 27.25 30.568 26.85 30.268 26.45C29.968 26.05 29.568 25.75 29.268 25.65C28.468 25.35 27.868 25.45 27.468 25.55C27.068 25.65 26.868 25.75 26.868 25.75C26.868 25.75 27.068 25.75 27.468 25.85C27.768 25.95 28.268 26.15 28.668 26.55C28.968 26.95 29.168 27.55 29.268 28.25C29.268 28.45 29.268 28.65 29.368 28.85V29.15C29.368 29.25 29.368 29.15 29.368 29.25C29.368 29.25 29.268 29.25 29.168 29.15L28.868 29.05C28.668 28.95 28.468 28.95 28.268 28.85C27.568 28.55 27.068 28.25 26.768 27.85C26.468 27.45 26.268 26.95 26.168 26.55C26.068 26.15 26.068 25.95 26.068 25.95C26.068 25.95 25.968 26.15 25.868 26.55C25.768 26.95 25.568 27.55 25.768 28.25C25.868 28.65 26.068 29.05 26.368 29.45C26.668 29.85 27.068 30.15 27.468 30.45C27.668 30.55 27.868 30.75 28.068 30.85C28.168 30.95 28.268 30.95 28.368 31.05C28.468 31.15 28.568 31.15 28.768 31.25C29.668 31.55 30.568 31.85 31.568 32.25H31.668C31.668 31.25 31.668 30.35 31.468 29.45L31.368 29.15Z" fill="#CFAA59"/>
<path id="Vector_5" d="M30.768 21.25C30.668 21.25 30.568 21.15 30.568 21.15C30.468 21.15 30.368 21.05 30.268 21.05C30.068 20.95 29.868 20.95 29.668 20.85C29.268 20.75 28.868 20.75 28.468 20.75C28.068 20.75 27.668 20.85 27.368 21.05C26.768 21.45 26.468 21.95 26.368 22.25C26.268 22.55 26.268 22.75 26.268 22.75C26.268 22.75 26.368 22.65 26.668 22.45C26.868 22.25 27.268 22.05 27.768 21.95C28.168 21.95 28.668 22.05 29.268 22.35C29.368 22.45 29.568 22.55 29.668 22.55L29.868 22.65C29.868 22.65 29.968 22.65 29.868 22.65L29.768 22.75L29.568 22.95C29.468 23.05 29.268 23.15 29.168 23.25C28.668 23.65 28.168 23.85 27.668 23.85C27.168 23.85 26.768 23.75 26.468 23.65C26.168 23.55 25.968 23.45 25.968 23.45C25.968 23.45 26.068 23.65 26.268 23.85C26.468 24.15 26.768 24.55 27.468 24.75C27.768 24.85 28.168 24.95 28.568 24.95C28.968 24.95 29.368 24.85 29.768 24.65C29.968 24.55 30.168 24.45 30.368 24.35C30.468 24.25 30.568 24.25 30.668 24.15C30.768 24.05 30.768 24.05 30.968 23.95C31.568 23.55 32.268 23.05 32.968 22.45H33.068C32.368 21.95 31.768 21.55 31.068 21.15L30.768 21.25Z" fill="#CFAA59"/>
<path id="Vector_6" d="M24.268 26.75C23.968 26.55 23.868 26.45 23.868 26.45C23.868 26.45 23.968 26.65 24.068 26.95C24.168 27.25 24.268 27.65 24.268 28.15C24.268 28.65 24.068 29.05 23.668 29.55C23.568 29.65 23.468 29.85 23.368 29.95L23.168 30.15C23.168 30.25 23.068 30.35 23.068 30.25L22.968 30.05C22.868 29.85 22.768 29.75 22.768 29.65C22.468 29.05 22.368 28.55 22.368 28.15C22.368 27.75 22.668 27.35 22.768 27.15C22.968 26.95 23.068 26.85 23.068 26.75C23.068 26.75 22.868 26.75 22.568 26.85C22.268 26.95 21.768 27.15 21.468 27.75C21.268 28.05 21.168 28.45 21.168 28.85C21.168 29.25 21.168 29.65 21.268 30.05C21.268 30.25 21.368 30.45 21.468 30.65C21.468 30.75 21.568 30.85 21.568 30.95C21.568 30.95 21.668 31.05 21.668 31.15L21.768 31.45C22.168 32.15 22.568 32.85 22.968 33.55C23.468 32.85 23.968 32.25 24.368 31.55C24.468 31.35 24.468 31.35 24.568 31.25C24.668 31.15 24.668 31.05 24.668 30.95C24.768 30.75 24.868 30.55 24.968 30.35C25.068 29.95 25.168 29.55 25.268 29.15C25.268 28.75 25.268 28.35 25.068 28.05C24.968 27.35 24.568 26.95 24.268 26.75Z" fill="#CFAA59"/>
<g id="Group_2">
<path id="Vector_7" d="M39.068 9.04998L38.768 8.74998L38.568 8.54998C37.768 7.84998 36.968 7.24998 36.168 6.64998C34.468 5.64998 32.668 5.04998 31.168 4.84998C29.668 4.64998 28.468 4.84998 27.668 5.14998C26.868 5.34998 26.468 5.54998 26.468 5.54998C26.468 5.54998 26.868 5.54998 27.668 5.64998C28.468 5.74998 29.468 5.94998 30.668 6.44998C31.868 6.94998 33.168 7.74998 34.468 8.84998C35.068 9.44998 35.768 10.05 36.368 10.75C36.468 10.85 36.368 10.85 36.368 10.85C36.368 10.85 36.068 10.85 35.868 10.85C34.968 10.95 34.068 10.85 33.268 10.75C31.668 10.55 30.268 9.84998 29.268 8.94998C28.268 8.14998 27.568 7.14998 27.168 6.54998C26.768 5.84998 26.568 5.44998 26.568 5.44998C26.568 5.44998 26.568 5.94998 26.768 6.74998C26.968 7.54998 27.268 8.74998 28.168 10.05C29.068 11.35 30.668 12.75 32.668 13.45C33.668 13.75 34.868 13.95 35.968 14.05C36.268 14.05 36.468 14.05 36.968 14.05C37.468 14.05 37.968 13.95 38.468 13.85C38.968 13.75 39.468 13.65 39.968 13.55L41.268 13.15L42.168 12.85C41.568 12.05 41.168 11.35 40.568 10.55C40.268 10.15 39.968 9.74998 39.568 9.44998C39.468 9.34998 39.268 9.14998 39.068 9.04998Z" fill="#CFAA59"/>
<path id="Vector_8" d="M31.268 9.65001C32.868 9.35001 32.368 6.85001 30.768 7.25001C29.168 7.55001 29.668 9.95001 31.268 9.65001Z" fill="#CFAA59"/>
<path id="Vector_9" d="M44.468 5.25C42.868 5.25 42.868 7.75 44.468 7.75C46.168 7.75 46.168 5.25 44.468 5.25Z" fill="#CFAA59"/>
<path id="Vector_10" d="M48.568 15.55C50.768 15.55 50.768 12.05 48.568 12.05C46.268 12.05 46.268 15.55 48.568 15.55Z" fill="#CFAA59"/>
<path id="Vector_11" d="M55.668 10.95C55.668 10.95 55.568 8.94997 55.268 7.94997C54.768 6.44997 54.068 4.84997 52.968 3.54997C52.568 3.14997 52.068 2.74997 51.668 2.34997C50.468 1.64997 49.068 1.24997 47.868 1.24997C46.668 1.14997 45.568 1.34997 44.568 1.74997C43.768 2.04997 42.968 2.64997 42.468 3.24997C41.468 4.54997 41.368 5.84997 41.368 6.54997C41.368 7.34997 41.568 7.74997 41.568 7.74997C41.568 7.74997 41.468 7.34997 41.568 6.54997C41.668 5.74997 41.868 4.54997 42.968 3.54997C44.068 2.54997 45.968 1.94997 48.068 2.34997C49.068 2.54997 50.168 2.94997 50.968 3.74997C51.168 3.84997 51.268 4.04997 51.368 4.14997C51.368 4.14997 53.568 6.84997 53.368 10.55C53.368 10.65 53.668 13.15 51.768 14.95C50.368 16.25 47.968 19.45 39.568 19.25C39.468 19.05 39.368 18.95 39.268 18.75C39.168 18.65 39.068 18.45 38.968 18.35C38.868 18.25 38.768 18.25 38.668 18.15C38.868 18.15 39.168 18.15 39.368 18.15C40.468 18.05 41.368 17.65 42.268 17.25C43.068 16.75 43.868 16.15 44.368 15.45C44.868 14.75 45.068 13.85 44.968 13.25C44.868 12.65 44.768 12.45 44.768 12.45C44.768 12.45 44.768 12.75 44.668 13.15C44.568 13.55 44.168 13.95 43.668 14.35C42.568 15.35 40.568 16.05 37.568 16.15L34.268 15.95C34.068 15.95 33.968 15.85 33.768 15.85C32.468 15.75 30.368 15.35 30.368 15.35C30.368 15.35 32.468 16.35 33.568 17.15C34.268 17.65 35.168 18.35 36.168 19.15C34.668 18.85 33.168 18.25 31.768 17.55C30.868 17.05 29.768 16.75 28.868 16.25C31.768 18.65 34.968 20.15 38.068 20.85C38.168 20.95 38.268 21.15 38.468 21.35C38.768 21.75 38.968 22.15 39.168 22.55C39.568 23.35 39.868 24.15 39.868 24.75C39.968 25.45 39.768 25.95 39.568 26.35C39.368 26.75 39.168 26.85 39.268 26.85C39.268 26.85 39.468 26.85 39.768 26.65C40.068 26.45 40.668 26.05 40.868 24.95C41.068 23.95 40.968 22.65 40.568 21.45C40.568 21.35 40.568 21.35 40.468 21.25C40.968 21.35 41.368 21.35 41.868 21.35C53.368 21.85 55.668 12.75 55.668 10.95Z" fill="#CFAA59"/>
<path id="Vector_12" d="M66.668 5.55001C69.868 6.45001 73.468 6.75001 77.268 6.35001C77.768 6.35001 78.168 6.25001 78.568 6.25001C78.268 6.45001 77.968 6.65001 77.568 6.85001C76.568 7.35001 75.368 7.65001 73.868 7.85001C71.068 8.25001 67.468 7.95001 63.568 6.85001C62.568 6.55001 61.668 6.25001 60.568 5.85001C59.468 5.45001 58.368 5.05001 57.168 4.75001C56.168 4.45001 55.068 4.25001 53.768 4.15001C54.368 5.15001 54.868 6.15001 55.268 7.25001C55.668 7.35001 56.168 7.35001 56.568 7.45001C57.668 7.65001 58.768 7.95001 59.868 8.25001C60.868 8.55001 62.068 8.85001 63.168 9.05001C67.468 9.85001 71.268 9.75001 74.168 9.05001C75.668 8.65001 76.868 8.15001 77.868 7.55001C78.468 7.15001 78.968 6.75001 79.368 6.25001C82.268 5.75001 84.968 4.85001 87.368 4.25001C88.868 3.85001 90.368 3.55001 91.768 3.35001C93.168 3.15001 94.468 3.05001 95.568 3.15001C97.968 3.25001 99.868 3.75001 101.168 4.15001C102.468 4.55001 103.168 4.85001 103.168 4.85001C103.168 4.85001 102.568 4.45001 101.268 3.85001C100.068 3.25001 98.168 2.55001 95.668 2.15001C94.468 1.95001 93.068 1.95001 91.568 2.05001C90.068 2.15001 88.568 2.35001 86.968 2.75001C84.968 3.15001 82.868 3.75001 80.668 4.15001V4.05001H80.568C80.568 4.05001 80.568 4.05001 80.568 4.15001C79.368 4.35001 78.168 4.65001 76.868 4.75001C73.268 5.15001 69.868 4.95001 66.768 4.25001C63.668 3.65001 60.968 2.65001 58.568 2.15001C56.168 1.65001 54.168 1.45001 52.768 1.45001C51.368 1.45001 50.668 1.65001 50.668 1.55001C50.668 1.55001 53.768 1.45001 58.268 2.95001C60.868 3.65001 63.468 4.75001 66.668 5.55001Z" fill="#CFAA59"/>
<path id="Vector_13" d="M68.268 10.65C67.768 10.95 67.168 11.05 66.368 11.15C65.568 11.15 64.668 11.05 63.568 10.85C61.468 10.45 59.068 9.55 55.968 8.75H55.868C55.968 9.05 56.068 9.45 56.068 9.85V9.95C56.068 10.25 56.168 10.65 56.168 10.95C58.968 11.35 61.468 11.85 63.568 11.95C64.668 11.95 65.668 11.95 66.468 11.75C67.268 11.55 67.968 11.25 68.468 10.85C68.968 10.45 69.168 10.15 69.368 9.85C69.568 9.65 69.568 9.45 69.568 9.45C69.568 9.45 69.468 9.55 69.268 9.75C69.068 10.15 68.768 10.45 68.268 10.65Z" fill="#CFAA59"/>
<path id="Vector_14" d="M47.5681 10.25C47.1681 10.75 46.8681 11.35 46.5681 11.85C46.9681 11.15 47.6681 10.65 48.6681 10.65C49.4681 10.65 50.0681 10.95 50.4681 11.45C50.6681 11.25 50.9681 11.15 51.2681 11.05C51.6681 10.95 52.1681 10.85 52.6681 10.85C52.8681 9.65002 52.4681 8.15002 52.4681 8.15002C51.1681 8.45002 48.3681 9.25002 47.5681 10.25Z" fill="#CFAA59"/>
<path id="Vector_15" d="M50.5681 4.54998C50.0681 4.84998 49.5681 5.34998 49.3681 5.94998C49.2681 6.24998 49.1681 6.54998 49.1681 6.84998C49.1681 7.14998 49.1681 7.74998 48.5681 8.34998L52.4681 7.24998C52.4681 7.14998 51.5681 5.04998 50.8681 4.34998C50.7681 4.54998 50.6681 4.54998 50.5681 4.54998Z" fill="#CFAA59"/>
<path id="Vector_16" d="M60.968 19.25H60.668C60.468 19.25 60.368 19.25 60.168 19.15C59.568 19.05 59.068 18.85 58.668 18.55C58.368 18.25 58.168 17.85 58.068 17.55C57.968 17.25 57.968 17.05 57.968 17.05C57.968 17.05 57.868 17.25 57.768 17.55C57.668 17.85 57.568 18.45 57.868 19.15C57.968 19.45 58.268 19.85 58.568 20.05C58.868 20.35 59.268 20.55 59.668 20.75C59.868 20.85 60.068 20.95 60.268 20.95C60.368 20.95 60.468 21.05 60.568 21.05C60.568 21.05 60.768 21.05 60.768 21.15H61.068C61.868 21.25 62.668 21.25 63.468 21.35V21.25C63.168 20.45 62.968 19.55 62.668 18.85C62.568 18.65 62.568 18.55 62.568 18.45C62.568 18.35 62.468 18.25 62.468 18.15C62.368 17.95 62.268 17.75 62.168 17.55C61.968 17.15 61.668 16.85 61.368 16.55C61.068 16.25 60.668 16.05 60.368 16.05C59.668 15.85 59.168 15.95 58.868 16.05C58.568 16.15 58.368 16.25 58.368 16.25C58.368 16.25 58.568 16.25 58.868 16.35C59.168 16.45 59.568 16.55 59.968 16.85C60.368 17.15 60.568 17.65 60.768 18.25C60.768 18.45 60.868 18.55 60.868 18.75L60.968 19.05C60.968 19.05 61.068 19.25 60.968 19.25Z" fill="#CFAA59"/>
<path id="Vector_17" d="M55.068 16.75C55.268 16.55 55.368 16.45 55.368 16.45C55.368 16.45 55.168 16.45 54.968 16.55C54.668 16.65 54.268 16.85 53.968 17.35C53.768 17.65 53.668 17.95 53.668 18.25C53.668 18.65 53.668 18.95 53.768 19.35C53.768 19.55 53.868 19.75 53.868 19.85C53.868 19.95 53.968 20.05 53.968 20.15C53.968 20.15 54.068 20.25 54.068 20.35L54.168 20.55C54.468 21.15 54.868 21.75 55.268 22.35C55.768 21.75 56.168 21.15 56.568 20.65C56.668 20.45 56.668 20.45 56.768 20.35C56.768 20.25 56.868 20.15 56.868 20.15C56.968 19.95 57.068 19.85 57.068 19.65C57.168 19.35 57.268 18.95 57.368 18.55C57.368 18.15 57.368 17.85 57.268 17.55C57.068 16.95 56.768 16.65 56.468 16.45C56.268 16.25 56.168 16.25 56.168 16.25C56.168 16.25 56.268 16.35 56.368 16.65C56.468 16.95 56.568 17.25 56.568 17.65C56.568 18.05 56.368 18.45 56.068 18.95C55.968 19.05 55.868 19.15 55.768 19.25L55.668 19.45C55.668 19.55 55.568 19.65 55.568 19.55L55.468 19.35C55.368 19.25 55.368 19.05 55.268 18.95C55.068 18.45 54.868 18.05 54.968 17.65C54.768 17.25 54.968 16.95 55.068 16.75Z" fill="#CFAA59"/>
<path id="Vector_18" d="M64.868 13.85C64.268 13.45 63.668 13.05 63.068 12.75L62.868 12.65C62.768 12.65 62.668 12.55 62.668 12.55C62.568 12.55 62.468 12.45 62.368 12.45C62.168 12.35 61.968 12.35 61.868 12.25C61.468 12.15 61.168 12.15 60.768 12.15C60.368 12.15 60.068 12.25 59.868 12.35C59.368 12.65 59.168 13.05 59.068 13.35C58.968 13.65 58.968 13.75 58.968 13.75C58.968 13.75 59.068 13.65 59.268 13.45C59.468 13.25 59.768 13.15 60.168 13.05C60.568 13.05 60.968 13.15 61.468 13.45C61.568 13.55 61.668 13.55 61.868 13.65L62.068 13.75L61.968 13.85L61.768 14.15C61.668 14.25 61.568 14.35 61.468 14.35C61.068 14.65 60.568 14.85 60.168 14.85C59.768 14.85 59.368 14.75 59.168 14.65C58.868 14.55 58.768 14.45 58.768 14.45C58.768 14.45 58.868 14.55 58.968 14.85C59.168 15.05 59.468 15.45 59.968 15.65C60.268 15.75 60.568 15.85 60.968 15.85C61.368 15.85 61.668 15.75 62.068 15.65C62.268 15.55 62.368 15.55 62.568 15.45C62.668 15.45 62.768 15.35 62.768 15.35C62.868 15.35 62.868 15.25 63.068 15.15C63.668 14.75 64.268 14.35 64.868 13.85Z" fill="#CFAA59"/>
<path id="Vector_19" d="M56.968 15.75C58.568 15.75 58.568 13.25 56.968 13.25C55.368 13.25 55.368 15.75 56.968 15.75Z" fill="#CFAA59"/>
<path id="Vector_20" d="M12.668 1.84999C14.168 2.04999 15.968 2.44999 17.568 3.44999C18.368 3.84999 19.068 4.44999 19.768 5.04999C20.368 5.54999 20.868 6.04999 21.368 6.64999C21.668 6.94999 21.868 7.24999 22.168 7.64999C22.868 8.54999 23.368 9.54999 23.768 10.45C24.168 11.45 24.568 12.35 24.768 13.35C25.268 15.25 25.468 17.15 25.368 18.65C25.368 20.25 25.068 21.45 24.768 22.25C24.468 23.05 24.168 23.45 24.168 23.45C24.168 23.45 24.568 23.15 25.068 22.35C25.568 21.65 26.168 20.35 26.568 18.75C26.968 17.15 27.068 15.15 26.768 12.95C26.568 11.85 26.368 10.75 25.868 9.54999C25.468 8.44999 24.868 7.24999 24.068 6.24999C23.968 6.14999 23.968 6.04999 23.868 6.04999C23.368 5.44999 22.868 4.84999 22.268 4.24999C21.068 3.14999 19.768 2.24999 18.368 1.64999C16.268 0.749989 14.168 0.549989 12.568 0.649989C11.068 0.849989 9.76803 1.24999 8.86803 1.54999C8.06803 1.84999 7.66803 2.04999 7.66803 2.04999C7.66803 2.04999 8.16803 1.94999 9.06803 1.84999C9.86803 1.74999 11.168 1.64999 12.668 1.84999Z" fill="#CFAA59"/>
<path id="Vector_21" d="M24.568 5.55C25.668 5.15 26.668 4.75 27.668 4.25C28.168 4.05 28.668 3.75 29.168 3.45C29.468 3.35 29.668 3.25 29.868 3.15C30.068 3.05 30.268 2.95 30.568 2.85C31.468 2.55 32.368 2.35 33.268 2.25C35.068 2.15 36.668 2.45 37.868 3.05C39.068 3.65 39.868 4.55 40.268 5.25C40.668 5.95 40.768 6.45 40.768 6.45C40.768 6.45 40.768 5.95 40.568 5.15C40.368 4.35 39.768 3.15 38.468 2.05C37.168 1.05 35.368 0.25 33.168 0.25C32.068 0.25 30.968 0.35 29.768 0.65C29.468 0.75 29.168 0.85 28.968 0.95C28.668 1.05 28.368 1.25 28.168 1.35L26.668 2.05C25.668 2.55 24.668 2.95 23.768 3.35C23.468 3.45 23.068 3.65 22.768 3.75C23.368 4.25 23.868 4.85 24.368 5.55C24.368 5.55 24.468 5.55 24.568 5.55Z" fill="#CFAA59"/>
<path id="Vector_22" d="M19.2681 5.25001L18.6681 5.45001C18.2681 5.55001 17.8681 5.65001 17.4681 5.65001C16.6681 5.75001 15.9681 5.65001 15.2681 5.45001C13.9681 5.15001 12.9681 4.45001 12.3681 3.95001C11.7681 3.35001 11.5681 2.95001 11.5681 2.95001C11.5681 2.95001 11.6681 3.45001 12.0681 4.15001C12.4681 4.85001 13.3681 5.95001 14.8681 6.55001C15.5681 6.85001 16.4681 7.15001 17.4681 7.25001C17.9681 7.25001 18.4681 7.25001 18.9681 7.25001C19.4681 7.15001 19.8681 7.15001 20.4681 7.05001C20.5681 7.05001 20.7681 6.95001 20.8681 6.95001C20.3681 6.25001 19.8681 5.75001 19.2681 5.25001Z" fill="#CFAA59"/>
</g>
<g id="Group_3">
<path id="Vector_23" d="M9.66806 39.35L9.36806 39.05L9.16806 38.85C8.46806 38.05 7.76806 37.25 7.26806 36.35C6.16806 34.65 5.56806 32.95 5.36806 31.45C5.16806 29.95 5.36806 28.75 5.56806 27.95C5.76806 27.25 5.96806 26.85 5.96806 26.85C5.96806 26.85 5.96806 27.25 6.06806 28.05C6.16806 28.85 6.36806 29.85 6.96806 31.05C7.46806 32.25 8.36806 33.55 9.46806 34.75C10.0681 35.35 10.6681 35.95 11.3681 36.65C11.4681 36.75 11.4681 36.75 11.4681 36.65C11.4681 36.65 11.4681 36.35 11.4681 36.15C11.4681 35.25 11.4681 34.35 11.2681 33.55C10.9681 31.95 10.2681 30.55 9.46806 29.55C8.56806 28.55 7.66806 27.85 6.96806 27.45C6.26806 27.05 5.86806 26.85 5.86806 26.85C5.86806 26.85 6.36806 26.85 7.16806 26.95C7.96806 27.05 9.16806 27.35 10.5681 28.25C11.8681 29.05 13.2681 30.65 14.0681 32.75C14.4681 33.75 14.6681 34.85 14.6681 36.05C14.6681 36.35 14.6681 36.55 14.6681 37.05C14.6681 37.55 14.5681 38.05 14.5681 38.55C14.4681 39.05 14.3681 39.55 14.2681 40.05L13.8681 41.35L13.5681 42.25C12.7681 41.75 12.0681 41.25 11.2681 40.65C10.8681 40.35 10.4681 40.05 10.1681 39.75C10.0681 39.75 9.86806 39.55 9.66806 39.35Z" fill="#CFAA59"/>
<path id="Vector_24" d="M10.1681 31.55C9.86806 33.15 7.36806 32.65 7.66806 31.05C7.96806 29.45 10.4681 29.95 10.1681 31.55Z" fill="#CFAA59"/>
<path id="Vector_25" d="M6.06805 44.85C6.06805 43.25 8.56805 43.15 8.56805 44.75C8.56805 46.45 6.06805 46.45 6.06805 44.85Z" fill="#CFAA59"/>
<path id="Vector_26" d="M16.368 48.65C16.468 50.95 12.968 50.95 12.868 48.75C12.868 46.55 16.368 46.45 16.368 48.65Z" fill="#CFAA59"/>
<path id="Vector_27" d="M11.9681 55.95C11.9681 55.95 9.96807 55.85 8.96807 55.55C7.46807 55.05 5.76807 54.35 4.56807 53.35C4.16807 52.95 3.76807 52.55 3.36807 52.05C2.56807 50.85 2.06807 49.55 2.06807 48.35C1.96807 47.15 2.16807 46.05 2.46807 45.05C2.76807 44.05 3.36807 43.35 3.96807 42.85C5.26807 41.75 6.56807 41.65 7.26807 41.65C8.06807 41.65 8.46807 41.75 8.46807 41.75C8.46807 41.75 8.06807 41.65 7.26807 41.75C6.46807 41.85 5.26807 42.15 4.26807 43.25C3.26807 44.35 2.76807 46.25 3.16807 48.35C3.36807 49.35 3.86807 50.45 4.66807 51.25C4.76807 51.35 4.96807 51.55 5.16807 51.65C5.16807 51.65 7.86807 53.85 11.5681 53.45C11.6681 53.45 14.1681 53.75 15.9681 51.75C17.2681 50.25 20.3681 47.85 19.9681 39.45C19.7681 39.35 19.6681 39.25 19.4681 39.15C19.3681 39.05 19.1681 38.95 19.0681 38.85C18.9681 38.75 18.8681 38.65 18.7681 38.55C18.7681 38.75 18.7681 39.05 18.7681 39.25C18.6681 40.35 18.3681 41.35 17.8681 42.15C17.3681 42.95 16.7681 43.75 16.0681 44.25C15.3681 44.75 14.4681 45.05 13.8681 44.95C13.2681 44.85 13.0681 44.75 13.0681 44.75C13.0681 44.75 13.3681 44.75 13.7681 44.65C14.1681 44.55 14.4681 44.15 14.8681 43.65C15.8681 42.55 16.4681 40.55 16.4681 37.55L16.1681 34.25C16.1681 34.05 16.0681 33.95 16.0681 33.75C15.8681 32.45 15.5681 30.35 15.5681 30.35C15.5681 30.35 16.5681 32.45 17.3681 33.45C17.8681 34.15 18.5681 35.05 19.4681 35.95C19.1681 34.45 18.5681 32.95 17.7681 31.55C17.2681 30.65 16.9681 29.55 16.4681 28.65C18.9681 31.55 20.4681 34.65 21.2681 37.75C21.4681 37.85 21.5681 37.95 21.7681 38.15C22.1681 38.45 22.5681 38.65 22.9681 38.85C23.7681 39.25 24.5681 39.45 25.1681 39.55C25.8681 39.65 26.3681 39.45 26.7681 39.25C27.0681 39.05 27.2681 38.85 27.2681 38.85C27.2681 38.85 27.2681 39.05 27.0681 39.35C26.8681 39.65 26.4681 40.25 25.4681 40.45C24.4681 40.75 23.1681 40.65 21.9681 40.25C21.8681 40.25 21.8681 40.25 21.7681 40.15C21.8681 40.65 21.8681 41.05 21.8681 41.55C22.8681 53.35 13.7681 55.85 11.9681 55.95Z" fill="#CFAA59"/>
<path id="Vector_28" d="M6.86804 67.05C7.76804 70.15 8.26804 73.85 7.96804 77.65C7.96804 78.05 7.86804 78.55 7.86804 78.95C8.06804 78.65 8.26804 78.25 8.46804 77.95C8.96804 76.95 9.26804 75.75 9.36804 74.25C9.66804 71.45 9.26804 67.85 8.06804 63.95C7.76804 62.95 7.36804 62.05 6.96804 60.95C6.56804 59.85 6.16804 58.75 5.76804 57.55C5.46804 56.55 5.16804 55.45 5.06804 54.15C6.06804 54.75 7.06804 55.25 8.16804 55.65C8.26804 56.05 8.36804 56.55 8.36804 56.95C8.66804 58.05 8.96804 59.15 9.26804 60.25C9.56804 61.25 9.96804 62.45 10.168 63.45C11.068 67.75 11.068 71.45 10.368 74.45C10.068 75.95 9.56804 77.25 8.86804 78.25C8.46804 78.85 8.06804 79.35 7.66804 79.85C7.16804 82.75 6.46804 85.45 5.86804 87.95C5.46804 89.45 5.16804 90.95 5.06804 92.35C4.86804 93.75 4.76804 95.05 4.86804 96.25C5.06804 98.65 5.56804 100.55 5.96804 101.75C6.36804 103.05 6.76804 103.75 6.76804 103.75C6.76804 103.75 6.36804 103.15 5.76804 101.85C5.16804 100.65 4.36804 98.75 3.96804 96.35C3.76804 95.05 3.66804 93.75 3.76804 92.25C3.86804 90.75 4.06804 89.25 4.36804 87.65C4.76804 85.65 5.26804 83.55 5.66804 81.35C5.66804 81.35 5.66804 81.35 5.56804 81.35V81.25C5.56804 81.25 5.56804 81.25 5.66804 81.25C5.86804 80.05 6.06804 78.85 6.16804 77.55C6.46804 73.95 6.16804 70.55 5.46804 67.45C4.76804 64.35 3.76804 61.65 3.16804 59.25C2.56804 56.85 2.36804 54.85 2.36804 53.55C2.36804 52.15 2.46804 51.45 2.46804 51.45C2.46804 51.45 2.36804 54.55 4.06804 59.05C4.76804 61.25 5.96804 63.85 6.86804 67.05Z" fill="#CFAA59"/>
<path id="Vector_29" d="M11.968 68.55C12.168 68.05 12.368 67.35 12.368 66.55C12.368 65.75 12.268 64.85 12.068 63.85C11.668 61.75 10.668 59.35 9.86804 56.35V56.25C10.168 56.35 10.568 56.35 10.968 56.45H11.068C11.368 56.45 11.768 56.55 12.068 56.45C12.468 59.25 13.068 61.65 13.168 63.75C13.268 64.85 13.168 65.85 13.068 66.75C12.868 67.55 12.568 68.25 12.268 68.75C11.868 69.25 11.568 69.45 11.368 69.65C11.168 69.85 10.968 69.85 10.968 69.85C10.968 69.85 11.068 69.75 11.268 69.55C11.468 69.35 11.768 69.05 11.968 68.55Z" fill="#CFAA59"/>
<path id="Vector_30" d="M11.0681 47.85C11.5681 47.45 12.0681 47.05 12.6681 46.85C11.9681 47.25 11.4681 47.95 11.4681 48.95C11.4681 49.75 11.8681 50.35 12.3681 50.75C12.1681 50.95 12.0681 51.25 11.9681 51.55C11.8681 51.95 11.7681 52.45 11.7681 52.95C10.5681 53.15 9.06805 52.75 9.06805 52.75C9.46805 51.45 10.0681 48.65 11.0681 47.85Z" fill="#CFAA59"/>
<path id="Vector_31" d="M5.56802 50.95C5.86802 50.45 6.36802 49.95 6.96802 49.75C7.26802 49.65 7.56802 49.55 7.86802 49.55C8.16802 49.55 8.76802 49.55 9.36802 48.85L8.36802 52.75C8.26802 52.75 6.16802 51.85 5.46802 51.25C5.46802 51.15 5.46802 51.05 5.56802 50.95Z" fill="#CFAA59"/>
<path id="Vector_32" d="M20.4681 61.05V60.75C20.4681 60.55 20.4681 60.45 20.3681 60.25C20.2681 59.65 20.0681 59.15 19.7681 58.75C19.4681 58.45 19.0681 58.25 18.7681 58.15C18.4681 58.05 18.2681 58.05 18.2681 58.05C18.2681 58.05 18.4681 57.95 18.7681 57.85C19.0681 57.75 19.6681 57.65 20.2681 57.85C20.5681 57.95 20.9681 58.25 21.1681 58.55C21.4681 58.85 21.6681 59.25 21.8681 59.65C21.9681 59.85 22.0681 60.05 22.0681 60.25C22.0681 60.35 22.1681 60.45 22.1681 60.55C22.1681 60.55 22.1681 60.75 22.2681 60.75L22.3681 61.05C22.4681 61.85 22.5681 62.65 22.6681 63.45H22.5681C21.7681 63.25 20.8681 62.95 20.1681 62.75C19.9681 62.65 19.8681 62.65 19.7681 62.65C19.6681 62.65 19.5681 62.55 19.4681 62.55C19.2681 62.45 19.0681 62.35 18.8681 62.25C18.4681 62.05 18.1681 61.75 17.8681 61.45C17.5681 61.15 17.3681 60.75 17.2681 60.45C17.0681 59.75 17.1681 59.25 17.2681 58.95C17.3681 58.65 17.4681 58.45 17.4681 58.45C17.4681 58.45 17.4681 58.65 17.5681 58.95C17.6681 59.25 17.7681 59.65 18.1681 60.05C18.4681 60.45 18.9681 60.65 19.5681 60.85C19.7681 60.85 19.8681 60.95 20.0681 60.95L20.3681 61.05C20.2681 61.05 20.3681 61.15 20.4681 61.05C20.3681 61.05 20.3681 61.05 20.4681 61.05C20.3681 61.05 20.3681 61.05 20.4681 61.05Z" fill="#CFAA59"/>
<path id="Vector_33" d="M17.768 55.25C17.568 55.45 17.468 55.55 17.468 55.55C17.468 55.55 17.468 55.35 17.568 55.15C17.668 54.85 17.868 54.45 18.368 54.05C18.668 53.85 18.968 53.75 19.268 53.75C19.668 53.75 19.968 53.75 20.368 53.75C20.568 53.75 20.768 53.85 20.868 53.85C20.968 53.85 21.068 53.95 21.168 53.95C21.168 53.95 21.268 54.05 21.368 54.05L21.568 54.15C22.168 54.45 22.768 54.85 23.368 55.15C22.768 55.65 22.168 56.05 21.668 56.55C21.468 56.65 21.468 56.65 21.368 56.75C21.268 56.75 21.168 56.85 21.168 56.85C20.968 56.95 20.868 57.05 20.668 57.15C20.368 57.35 19.968 57.45 19.568 57.45C19.168 57.45 18.868 57.45 18.568 57.35C17.968 57.15 17.668 56.85 17.468 56.65C17.268 56.45 17.168 56.25 17.168 56.25C17.168 56.25 17.268 56.35 17.568 56.45C17.868 56.55 18.168 56.65 18.568 56.55C18.968 56.55 19.368 56.35 19.768 55.95C19.868 55.85 19.968 55.75 20.068 55.65L20.268 55.45C20.268 55.45 20.468 55.35 20.368 55.35V55.25C20.268 55.15 20.068 55.15 19.968 55.05C19.468 54.85 19.068 54.75 18.668 54.75C18.268 54.85 17.968 55.05 17.768 55.25Z" fill="#CFAA59"/>
<path id="Vector_34" d="M15.068 65.05C14.668 64.45 14.268 63.95 13.968 63.35L13.868 63.15C13.868 63.05 13.768 62.95 13.768 62.95C13.768 62.85 13.668 62.75 13.668 62.65C13.568 62.45 13.568 62.25 13.468 62.15C13.368 61.75 13.368 61.45 13.368 61.05C13.368 60.65 13.468 60.35 13.568 60.15C13.868 59.65 14.268 59.35 14.468 59.25C14.768 59.15 14.868 59.15 14.868 59.15C14.868 59.15 14.768 59.25 14.568 59.45C14.368 59.65 14.268 59.95 14.168 60.35C14.168 60.75 14.268 61.15 14.568 61.65C14.668 61.75 14.668 61.95 14.768 62.05L14.868 62.25L14.968 62.15L15.068 61.95C15.168 61.85 15.268 61.75 15.268 61.55C15.568 61.05 15.668 60.65 15.668 60.25C15.668 59.85 15.568 59.45 15.468 59.25C15.368 58.95 15.268 58.85 15.268 58.85C15.268 58.85 15.368 58.95 15.668 59.05C15.868 59.25 16.268 59.55 16.468 60.05C16.568 60.35 16.668 60.65 16.668 61.05C16.668 61.45 16.568 61.75 16.468 62.15C16.368 62.35 16.368 62.45 16.268 62.65C16.268 62.75 16.168 62.85 16.168 62.85C16.068 62.95 16.068 62.95 15.968 63.15C15.968 63.75 15.568 64.45 15.068 65.05Z" fill="#CFAA59"/>
<path id="Vector_35" d="M16.7681 57.15C16.7681 58.75 14.2681 58.85 14.2681 57.25C14.2681 55.55 16.7681 55.55 16.7681 57.15Z" fill="#CFAA59"/>
<path id="Vector_36" d="M1.96804 13.05C2.16804 14.55 2.66804 16.35 3.66804 17.95C4.06804 18.75 4.66804 19.45 5.26804 20.15C5.76804 20.75 6.36804 21.25 6.96804 21.75C7.26804 22.05 7.56804 22.25 7.96804 22.45C8.86804 23.05 9.86804 23.65 10.868 24.05C11.868 24.45 12.868 24.75 13.768 24.95C15.668 25.35 17.568 25.55 19.068 25.45C20.568 25.35 21.768 25.05 22.568 24.65C23.368 24.35 23.768 24.05 23.768 24.05C23.768 24.05 23.468 24.45 22.768 24.95C22.068 25.45 20.868 26.15 19.268 26.55C17.668 26.95 15.668 27.15 13.468 26.85C12.368 26.75 11.268 26.45 10.068 26.05C8.86804 25.65 7.76804 25.05 6.66804 24.35C6.56804 24.25 6.46804 24.25 6.46804 24.15C5.76804 23.65 5.16804 23.15 4.66804 22.65C3.46804 21.45 2.56804 20.15 1.96804 18.85C0.968036 16.75 0.768036 14.75 0.868036 13.05C0.968036 11.35 1.26804 10.15 1.56804 9.24999C1.76804 8.44999 2.06804 8.04999 1.96804 8.04999C1.96804 8.04999 1.86804 8.54999 1.86804 9.44999C1.76804 10.25 1.76804 11.55 1.96804 13.05Z" fill="#CFAA59"/>
<path id="Vector_37" d="M5.86804 24.95C5.56804 26.05 5.06804 27.05 4.56804 28.05C4.36804 28.55 4.06804 29.05 3.86804 29.55C3.76804 29.85 3.66804 30.05 3.56804 30.25C3.46804 30.45 3.36804 30.65 3.26804 30.95C2.96804 31.85 2.76804 32.75 2.76804 33.65C2.66804 35.35 3.06804 37.05 3.76804 38.25C4.36804 39.45 5.36804 40.25 6.06804 40.55C6.76804 40.95 7.26804 41.05 7.26804 41.05C7.26804 41.05 6.76804 41.05 5.96804 40.85C5.16804 40.65 3.86804 40.05 2.86804 38.85C1.86804 37.65 1.06804 35.75 0.868038 33.65C0.768038 32.55 0.868038 31.45 1.26804 30.25C1.36804 29.95 1.46804 29.65 1.56804 29.35C1.66804 29.05 1.76804 28.75 1.86804 28.55L2.56804 27.05C3.06804 26.05 3.46804 25.05 3.86804 24.15C3.96804 23.85 4.16804 23.45 4.26804 23.15C4.86804 23.75 5.46804 24.25 6.06804 24.65C5.96804 24.75 5.86804 24.85 5.86804 24.95Z" fill="#CFAA59"/>
<path id="Vector_38" d="M5.46802 19.65L5.56802 19.05C5.66802 18.65 5.76802 18.25 5.76802 17.85C5.76802 17.05 5.76802 16.35 5.56802 15.65C5.26802 14.35 4.56802 13.35 3.96802 12.85C3.36802 12.25 2.96802 12.05 2.96802 12.05C2.96802 12.05 3.46802 12.15 4.16802 12.55C4.96802 12.95 5.96802 13.85 6.66802 15.25C6.96802 15.95 7.26802 16.85 7.36802 17.85C7.46802 18.35 7.46802 18.85 7.36802 19.35C7.26802 19.85 7.26802 20.35 7.16802 20.85C7.16802 20.95 7.16802 21.15 7.06802 21.25C6.46802 20.65 5.96802 20.15 5.46802 19.65Z" fill="#CFAA59"/>
</g>
</g>
</svg>
