<svg width="104" height="104" viewBox="0 0 104 104" fill="none" xmlns="http://www.w3.org/2000/svg">
<g id="Group">
<path id="Vector" d="M85.3319 91.55C86.4319 93.55 88.1319 95.65 90.5319 97.55C91.7319 98.55 93.0319 99.45 94.5319 100.15C95.2319 100.55 96.0319 100.95 96.8319 101.25L97.2319 101.35L97.8319 101.45C98.2319 101.55 98.6319 101.65 98.9319 101.75C99.7319 101.85 100.432 101.85 101.232 101.95C101.332 101.15 101.432 100.45 101.432 99.75C101.432 99.35 101.432 98.95 101.432 98.55C101.432 98.35 101.432 98.15 101.332 97.95V97.65V97.45C101.132 96.55 100.832 95.65 100.532 94.85C99.8319 93.25 98.9319 91.85 98.0319 90.65C96.1319 88.25 93.9319 86.55 92.0319 85.45C90.0319 84.35 88.3319 83.75 87.1319 83.55C85.9319 83.25 85.2319 83.35 85.2319 83.25C85.2319 83.25 87.9319 84.05 91.1319 86.75C92.7319 88.15 94.4319 89.95 95.8319 92.25C96.4319 93.45 97.0319 94.75 97.5319 96.05C97.7319 96.75 97.9319 97.35 98.0319 98.05V98.15L97.8319 98.05C97.1319 97.85 96.4319 97.55 95.8319 97.25C94.5319 96.65 93.2319 95.95 92.1319 95.25C89.8319 93.75 88.0319 92.15 86.6319 90.55C85.3319 88.95 84.5319 87.45 84.2319 86.35C83.9319 85.25 83.9319 84.55 83.9319 84.55C83.9319 84.55 83.7319 85.25 83.7319 86.45C83.7319 87.65 84.2319 89.55 85.3319 91.55Z" fill="#CFAA59"/>
<path id="Vector_2" d="M82.432 83.45C84.032 83.45 84.032 80.95 82.432 80.95C80.832 80.95 80.832 83.45 82.432 83.45Z" fill="#CFAA59"/>
<path id="Vector_3" d="M91.232 89.15C88.932 89.15 88.932 92.65 91.232 92.65C93.532 92.65 93.532 89.15 91.232 89.15Z" fill="#CFAA59"/>
<path id="Vector_4" d="M72.632 74.85C72.632 74.95 72.632 75.05 72.732 75.15C72.732 75.25 72.832 75.35 72.832 75.55C72.932 75.75 72.932 76.05 73.032 76.25C73.232 76.75 73.432 77.15 73.732 77.55C74.032 77.95 74.432 78.25 74.732 78.35C75.532 78.65 76.132 78.55 76.532 78.45C76.932 78.35 77.132 78.25 77.132 78.25C77.132 78.25 76.932 78.25 76.532 78.15C76.232 78.05 75.732 77.85 75.332 77.45C75.032 77.05 74.832 76.45 74.732 75.75C74.732 75.55 74.732 75.35 74.632 75.15V74.85C74.632 74.75 74.632 74.85 74.632 74.75C74.632 74.75 74.732 74.75 74.832 74.85L75.132 74.95C75.332 75.05 75.532 75.05 75.732 75.15C76.432 75.45 76.932 75.75 77.232 76.15C77.532 76.55 77.732 77.05 77.832 77.45C77.932 77.85 77.932 78.05 77.932 78.05C77.932 78.05 78.032 77.85 78.132 77.45C78.232 77.05 78.432 76.45 78.232 75.75C78.132 75.35 77.932 74.95 77.632 74.55C77.332 74.15 76.932 73.85 76.532 73.55C76.332 73.45 76.132 73.25 75.932 73.15C75.832 73.05 75.732 73.05 75.632 72.95C75.532 72.85 75.432 72.85 75.232 72.75C74.332 72.45 73.432 72.15 72.432 71.75H72.332C72.332 72.75 72.332 73.65 72.532 74.55L72.632 74.85Z" fill="#CFAA59"/>
<path id="Vector_5" d="M73.232 82.75C73.332 82.75 73.432 82.85 73.432 82.85C73.532 82.85 73.632 82.95 73.732 82.95C73.932 83.05 74.132 83.05 74.332 83.15C74.732 83.25 75.132 83.25 75.532 83.25C75.932 83.25 76.332 83.15 76.632 82.95C77.232 82.55 77.532 82.05 77.632 81.75C77.732 81.45 77.732 81.25 77.732 81.25C77.732 81.25 77.632 81.35 77.332 81.55C77.132 81.75 76.732 81.95 76.232 82.05C75.832 82.05 75.332 81.95 74.732 81.65C74.632 81.55 74.432 81.45 74.332 81.45L74.132 81.35C74.132 81.35 74.032 81.35 74.132 81.35L74.232 81.25L74.432 81.05C74.532 80.95 74.732 80.85 74.832 80.75C75.332 80.35 75.832 80.15 76.332 80.15C76.832 80.15 77.232 80.25 77.532 80.35C77.832 80.45 78.032 80.55 78.032 80.55C78.032 80.55 77.932 80.35 77.732 80.15C77.532 79.85 77.232 79.45 76.532 79.25C76.232 79.15 75.832 79.05 75.432 79.05C75.032 79.05 74.632 79.15 74.232 79.35C74.032 79.45 73.832 79.55 73.632 79.65C73.532 79.75 73.432 79.75 73.332 79.85C73.232 79.95 73.232 79.95 73.032 80.05C72.432 80.45 71.732 80.95 71.032 81.55H70.932C71.632 82.05 72.232 82.45 72.932 82.85L73.232 82.75Z" fill="#CFAA59"/>
<path id="Vector_6" d="M79.732 77.25C80.032 77.45 80.132 77.55 80.132 77.55C80.132 77.55 80.032 77.35 79.932 77.05C79.832 76.75 79.732 76.35 79.732 75.85C79.732 75.35 79.932 74.95 80.332 74.45C80.432 74.35 80.532 74.15 80.632 74.05L80.832 73.85C80.832 73.75 80.932 73.65 80.932 73.75L81.032 73.95C81.132 74.15 81.232 74.25 81.232 74.35C81.532 74.95 81.632 75.45 81.632 75.85C81.632 76.25 81.332 76.65 81.232 76.85C81.032 77.05 80.932 77.15 80.932 77.25C80.932 77.25 81.132 77.25 81.432 77.15C81.732 77.05 82.232 76.85 82.532 76.25C82.732 75.95 82.832 75.55 82.832 75.15C82.832 74.75 82.832 74.35 82.732 73.95C82.732 73.75 82.632 73.55 82.532 73.35C82.532 73.25 82.432 73.15 82.432 73.05C82.432 73.05 82.332 72.95 82.332 72.85L82.232 72.55C81.832 71.85 81.432 71.15 81.032 70.45C80.532 71.15 80.032 71.75 79.632 72.45C79.532 72.65 79.532 72.65 79.432 72.75C79.332 72.85 79.332 72.95 79.332 73.05C79.232 73.25 79.132 73.45 79.032 73.65C78.932 74.05 78.832 74.45 78.732 74.85C78.732 75.25 78.732 75.65 78.932 75.95C79.032 76.65 79.432 77.05 79.732 77.25Z" fill="#CFAA59"/>
<g id="Group_2">
<path id="Vector_7" d="M64.932 94.95L65.232 95.25L65.432 95.45C66.232 96.15 67.032 96.75 67.832 97.35C69.532 98.35 71.332 98.95 72.832 99.15C74.332 99.35 75.532 99.15 76.332 98.85C77.132 98.65 77.532 98.45 77.532 98.45C77.532 98.45 77.132 98.45 76.332 98.35C75.532 98.25 74.532 98.05 73.332 97.55C72.132 97.05 70.832 96.25 69.532 95.15C68.932 94.55 68.232 93.95 67.632 93.25C67.532 93.15 67.632 93.15 67.632 93.15C67.632 93.15 67.932 93.15 68.132 93.15C69.032 93.05 69.932 93.15 70.732 93.25C72.332 93.45 73.732 94.15 74.732 95.05C75.732 95.85 76.432 96.85 76.832 97.45C77.232 98.15 77.432 98.55 77.432 98.55C77.432 98.55 77.432 98.05 77.232 97.25C77.032 96.45 76.732 95.25 75.832 93.95C74.932 92.65 73.332 91.25 71.332 90.55C70.332 90.25 69.132 90.05 68.032 89.95C67.732 89.95 67.532 89.95 67.032 89.95C66.532 89.95 66.032 90.05 65.532 90.15C65.032 90.25 64.532 90.35 64.032 90.45L62.732 90.85L61.832 91.15C62.432 91.95 62.832 92.65 63.432 93.45C63.732 93.85 64.032 94.25 64.432 94.55C64.532 94.65 64.732 94.85 64.932 94.95Z" fill="#CFAA59"/>
<path id="Vector_8" d="M72.732 94.35C71.132 94.65 71.632 97.15 73.232 96.75C74.832 96.45 74.332 94.05 72.732 94.35Z" fill="#CFAA59"/>
<path id="Vector_9" d="M59.532 98.75C61.132 98.75 61.132 96.25 59.532 96.25C57.832 96.25 57.832 98.75 59.532 98.75Z" fill="#CFAA59"/>
<path id="Vector_10" d="M55.432 88.45C53.232 88.45 53.232 91.95 55.432 91.95C57.732 91.95 57.732 88.45 55.432 88.45Z" fill="#CFAA59"/>
<path id="Vector_11" d="M48.332 93.05C48.332 93.05 48.432 95.05 48.732 96.05C49.232 97.55 49.932 99.15 51.032 100.45C51.432 100.85 51.932 101.25 52.332 101.65C53.532 102.35 54.932 102.75 56.132 102.75C57.332 102.85 58.432 102.65 59.432 102.25C60.232 101.95 61.032 101.35 61.532 100.75C62.532 99.45 62.632 98.15 62.632 97.45C62.632 96.65 62.432 96.25 62.432 96.25C62.432 96.25 62.532 96.65 62.432 97.45C62.332 98.25 62.132 99.45 61.032 100.45C59.932 101.45 58.032 102.05 55.932 101.65C54.932 101.45 53.832 101.05 53.032 100.25C52.832 100.15 52.732 99.95 52.632 99.85C52.632 99.85 50.432 97.15 50.632 93.45C50.632 93.35 50.332 90.85 52.232 89.05C53.632 87.75 56.032 84.55 64.432 84.75C64.532 84.95 64.632 85.05 64.732 85.25C64.832 85.35 64.932 85.55 65.032 85.65C65.132 85.75 65.232 85.75 65.332 85.85C65.132 85.85 64.832 85.85 64.632 85.85C63.532 85.95 62.632 86.35 61.732 86.75C60.932 87.25 60.132 87.85 59.632 88.55C59.132 89.25 58.932 90.15 59.032 90.75C59.132 91.35 59.232 91.55 59.232 91.55C59.232 91.55 59.232 91.25 59.332 90.85C59.432 90.45 59.832 90.05 60.332 89.65C61.432 88.65 63.432 87.95 66.432 87.85L69.732 88.05C69.932 88.05 70.032 88.15 70.232 88.15C71.532 88.25 73.632 88.65 73.632 88.65C73.632 88.65 71.532 87.65 70.432 86.85C69.732 86.35 68.832 85.65 67.832 84.85C69.332 85.15 70.832 85.75 72.232 86.45C73.132 86.95 74.232 87.25 75.132 87.75C72.232 85.35 69.032 83.85 65.932 83.15C65.832 83.05 65.732 82.85 65.532 82.65C65.232 82.25 65.032 81.85 64.832 81.45C64.432 80.65 64.132 79.85 64.132 79.25C64.032 78.55 64.232 78.05 64.432 77.65C64.632 77.25 64.832 77.15 64.732 77.15C64.732 77.15 64.532 77.15 64.232 77.35C63.932 77.55 63.332 77.95 63.132 79.05C62.932 80.05 63.032 81.35 63.432 82.55C63.432 82.65 63.432 82.65 63.532 82.75C63.032 82.65 62.632 82.65 62.132 82.65C50.632 82.15 48.332 91.25 48.332 93.05Z" fill="#CFAA59"/>
<path id="Vector_12" d="M37.332 98.45C34.132 97.55 30.532 97.25 26.732 97.65C26.232 97.65 25.832 97.75 25.432 97.75C25.732 97.55 26.032 97.35 26.432 97.15C27.432 96.65 28.632 96.35 30.132 96.15C32.932 95.75 36.532 96.05 40.432 97.15C41.432 97.45 42.332 97.75 43.432 98.15C44.532 98.55 45.632 98.95 46.832 99.25C47.832 99.55 48.932 99.75 50.232 99.85C49.632 98.85 49.132 97.85 48.732 96.75C48.332 96.65 47.832 96.65 47.432 96.55C46.332 96.35 45.232 96.05 44.132 95.75C43.132 95.45 41.932 95.15 40.832 94.95C36.532 94.15 32.732 94.25 29.832 94.95C28.332 95.35 27.132 95.85 26.132 96.45C25.532 96.85 25.032 97.25 24.632 97.75C21.732 98.25 19.032 99.15 16.632 99.75C15.132 100.15 13.632 100.45 12.232 100.65C10.832 100.85 9.53197 100.95 8.43197 100.85C6.03197 100.75 4.13197 100.25 2.83197 99.85C1.53197 99.45 0.83197 99.15 0.83197 99.15C0.83197 99.15 1.43197 99.55 2.73197 100.15C3.93197 100.75 5.83197 101.45 8.33197 101.85C9.53197 102.05 10.932 102.05 12.432 101.95C13.932 101.85 15.432 101.65 17.032 101.25C19.032 100.85 21.132 100.25 23.332 99.85V99.95H23.432C23.432 99.95 23.432 99.95 23.432 99.85C24.632 99.65 25.832 99.35 27.132 99.25C30.732 98.85 34.132 99.05 37.232 99.75C40.332 100.35 43.032 101.35 45.432 101.85C47.832 102.35 49.832 102.55 51.232 102.55C52.632 102.55 53.332 102.35 53.332 102.45C53.332 102.45 50.232 102.55 45.732 101.05C43.132 100.35 40.532 99.25 37.332 98.45Z" fill="#CFAA59"/>
<path id="Vector_13" d="M35.732 93.35C36.232 93.05 36.832 92.95 37.632 92.85C38.432 92.85 39.332 92.95 40.432 93.15C42.532 93.55 44.932 94.45 48.032 95.25H48.132C48.032 94.95 47.932 94.55 47.932 94.15V94.05C47.932 93.75 47.832 93.35 47.832 93.05C45.032 92.65 42.532 92.15 40.432 92.05C39.332 92.05 38.332 92.05 37.532 92.25C36.732 92.45 36.032 92.75 35.532 93.15C35.032 93.55 34.832 93.85 34.632 94.15C34.432 94.35 34.432 94.55 34.432 94.55C34.432 94.55 34.532 94.45 34.732 94.25C34.932 93.85 35.232 93.55 35.732 93.35Z" fill="#CFAA59"/>
<path id="Vector_14" d="M56.4319 93.75C56.8319 93.25 57.1319 92.65 57.4319 92.15C57.0319 92.85 56.3319 93.35 55.3319 93.35C54.5319 93.35 53.9319 93.05 53.5319 92.55C53.3319 92.75 53.0319 92.85 52.7319 92.95C52.3319 93.05 51.8319 93.15 51.3319 93.15C51.1319 94.35 51.5319 95.85 51.5319 95.85C52.8319 95.55 55.6319 94.75 56.4319 93.75Z" fill="#CFAA59"/>
<path id="Vector_15" d="M53.4319 99.45C53.9319 99.15 54.4319 98.65 54.6319 98.05C54.7319 97.75 54.8319 97.45 54.8319 97.15C54.8319 96.85 54.8319 96.25 55.4319 95.65L51.5319 96.75C51.5319 96.85 52.4319 98.95 53.1319 99.65C53.2319 99.45 53.3319 99.45 53.4319 99.45Z" fill="#CFAA59"/>
<path id="Vector_16" d="M43.032 84.75H43.332C43.532 84.75 43.632 84.75 43.832 84.85C44.432 84.95 44.932 85.15 45.332 85.45C45.632 85.75 45.832 86.15 45.932 86.45C46.032 86.75 46.032 86.95 46.032 86.95C46.032 86.95 46.132 86.75 46.232 86.45C46.332 86.15 46.432 85.55 46.132 84.85C46.032 84.55 45.732 84.15 45.432 83.95C45.132 83.65 44.732 83.45 44.332 83.25C44.132 83.15 43.932 83.05 43.732 83.05C43.632 83.05 43.532 82.95 43.432 82.95C43.432 82.95 43.232 82.95 43.232 82.85H42.932C42.132 82.75 41.332 82.75 40.532 82.65V82.75C40.832 83.55 41.032 84.45 41.332 85.15C41.432 85.35 41.432 85.45 41.432 85.55C41.432 85.65 41.532 85.75 41.532 85.85C41.632 86.05 41.732 86.25 41.832 86.45C42.032 86.85 42.332 87.15 42.632 87.45C42.932 87.75 43.332 87.95 43.632 87.95C44.332 88.15 44.832 88.05 45.132 87.95C45.432 87.85 45.632 87.75 45.632 87.75C45.632 87.75 45.432 87.75 45.132 87.65C44.832 87.55 44.432 87.45 44.032 87.15C43.632 86.85 43.432 86.35 43.232 85.75C43.232 85.55 43.132 85.45 43.132 85.25L43.032 84.95C43.032 84.95 42.932 84.75 43.032 84.75Z" fill="#CFAA59"/>
<path id="Vector_17" d="M48.932 87.25C48.732 87.45 48.632 87.55 48.632 87.55C48.632 87.55 48.832 87.55 49.032 87.45C49.332 87.35 49.732 87.15 50.032 86.65C50.232 86.35 50.332 86.05 50.332 85.75C50.332 85.35 50.332 85.05 50.232 84.65C50.232 84.45 50.132 84.25 50.132 84.15C50.132 84.05 50.032 83.95 50.032 83.85C50.032 83.85 49.932 83.75 49.932 83.65L49.832 83.45C49.532 82.85 49.132 82.25 48.732 81.65C48.232 82.25 47.832 82.85 47.432 83.35C47.332 83.55 47.332 83.55 47.232 83.65C47.232 83.75 47.132 83.85 47.132 83.85C47.032 84.05 46.932 84.15 46.932 84.35C46.832 84.65 46.732 85.05 46.632 85.45C46.632 85.85 46.632 86.15 46.732 86.45C46.932 87.05 47.232 87.35 47.532 87.55C47.732 87.75 47.832 87.75 47.832 87.75C47.832 87.75 47.732 87.65 47.632 87.35C47.532 87.05 47.432 86.75 47.432 86.35C47.432 85.95 47.632 85.55 47.932 85.05C48.032 84.95 48.132 84.85 48.232 84.75L48.332 84.55C48.332 84.45 48.432 84.35 48.432 84.45L48.532 84.65C48.632 84.75 48.632 84.95 48.732 85.05C48.932 85.55 49.132 85.95 49.032 86.35C49.232 86.75 49.032 87.05 48.932 87.25Z" fill="#CFAA59"/>
<path id="Vector_18" d="M39.132 90.15C39.732 90.55 40.332 90.95 40.932 91.25L41.132 91.35C41.232 91.35 41.332 91.45 41.332 91.45C41.432 91.45 41.532 91.55 41.632 91.55C41.832 91.65 42.032 91.65 42.132 91.75C42.532 91.85 42.832 91.85 43.232 91.85C43.632 91.85 43.932 91.75 44.132 91.65C44.632 91.35 44.832 90.95 44.932 90.65C45.032 90.35 45.032 90.25 45.032 90.25C45.032 90.25 44.932 90.35 44.732 90.55C44.532 90.75 44.232 90.85 43.832 90.95C43.432 90.95 43.032 90.85 42.532 90.55C42.432 90.45 42.332 90.45 42.132 90.35L41.932 90.25L42.032 90.15L42.232 89.85C42.332 89.75 42.432 89.65 42.532 89.65C42.932 89.35 43.432 89.15 43.832 89.15C44.232 89.15 44.632 89.25 44.832 89.35C45.132 89.45 45.232 89.55 45.232 89.55C45.232 89.55 45.132 89.45 45.032 89.15C44.832 88.95 44.532 88.55 44.032 88.35C43.732 88.25 43.432 88.15 43.032 88.15C42.632 88.15 42.332 88.25 41.932 88.35C41.732 88.45 41.632 88.45 41.432 88.55C41.332 88.55 41.232 88.65 41.232 88.65C41.132 88.65 41.132 88.75 40.932 88.85C40.332 89.25 39.732 89.65 39.132 90.15Z" fill="#CFAA59"/>
<path id="Vector_19" d="M47.032 88.25C45.432 88.25 45.432 90.75 47.032 90.75C48.632 90.75 48.632 88.25 47.032 88.25Z" fill="#CFAA59"/>
<path id="Vector_20" d="M91.332 102.15C89.832 101.95 88.032 101.55 86.432 100.55C85.632 100.15 84.932 99.55 84.232 98.95C83.632 98.45 83.132 97.95 82.632 97.35C82.332 97.05 82.132 96.75 81.832 96.35C81.132 95.45 80.632 94.45 80.232 93.55C79.832 92.55 79.432 91.65 79.232 90.65C78.732 88.75 78.532 86.85 78.632 85.35C78.632 83.75 78.932 82.55 79.232 81.75C79.532 80.95 79.832 80.55 79.832 80.55C79.832 80.55 79.432 80.85 78.932 81.65C78.432 82.35 77.832 83.65 77.432 85.25C77.032 86.85 76.932 88.85 77.232 91.05C77.432 92.15 77.632 93.25 78.132 94.45C78.532 95.55 79.132 96.75 79.932 97.75C80.032 97.85 80.032 97.95 80.132 97.95C80.632 98.55 81.132 99.15 81.732 99.75C82.932 100.85 84.232 101.75 85.632 102.35C87.732 103.25 89.832 103.45 91.432 103.35C92.932 103.15 94.232 102.75 95.132 102.45C95.932 102.15 96.332 101.95 96.332 101.95C96.332 101.95 95.832 102.05 94.932 102.15C94.132 102.25 92.832 102.35 91.332 102.15Z" fill="#CFAA59"/>
<path id="Vector_21" d="M79.432 98.45C78.332 98.85 77.332 99.25 76.332 99.75C75.832 99.95 75.332 100.25 74.832 100.55C74.532 100.65 74.332 100.75 74.132 100.85C73.932 100.95 73.732 101.05 73.432 101.15C72.532 101.45 71.632 101.65 70.732 101.75C68.932 101.85 67.332 101.55 66.132 100.95C64.932 100.35 64.132 99.45 63.732 98.75C63.332 98.05 63.232 97.55 63.232 97.55C63.232 97.55 63.232 98.05 63.432 98.85C63.632 99.65 64.232 100.85 65.532 101.95C66.832 102.95 68.632 103.75 70.832 103.75C71.932 103.75 73.032 103.65 74.232 103.35C74.532 103.25 74.832 103.15 75.032 103.05C75.332 102.95 75.632 102.75 75.832 102.65L77.332 101.95C78.332 101.45 79.332 101.05 80.232 100.65C80.532 100.55 80.932 100.35 81.232 100.25C80.632 99.75 80.132 99.15 79.632 98.45C79.632 98.45 79.532 98.45 79.432 98.45Z" fill="#CFAA59"/>
<path id="Vector_22" d="M84.7319 98.75L85.3319 98.55C85.7319 98.45 86.1319 98.35 86.5319 98.35C87.3319 98.25 88.0319 98.35 88.7319 98.55C90.0319 98.85 91.0319 99.55 91.6319 100.05C92.2319 100.65 92.4319 101.05 92.4319 101.05C92.4319 101.05 92.3319 100.55 91.9319 99.85C91.5319 99.15 90.6319 98.05 89.1319 97.45C88.4319 97.15 87.5319 96.85 86.5319 96.75C86.0319 96.75 85.5319 96.75 85.0319 96.75C84.5319 96.85 84.1319 96.85 83.5319 96.95C83.4319 96.95 83.2319 97.05 83.1319 97.05C83.6319 97.75 84.1319 98.25 84.7319 98.75Z" fill="#CFAA59"/>
</g>
<g id="Group_3">
<path id="Vector_23" d="M94.3319 64.65L94.6319 64.95L94.8319 65.15C95.5319 65.95 96.2319 66.75 96.7319 67.65C97.8319 69.35 98.4319 71.05 98.6319 72.55C98.8319 74.05 98.6319 75.25 98.4319 76.05C98.2319 76.75 98.0319 77.15 98.0319 77.15C98.0319 77.15 98.0319 76.75 97.9319 75.95C97.8319 75.15 97.6319 74.15 97.0319 72.95C96.5319 71.75 95.6319 70.45 94.5319 69.25C93.9319 68.65 93.3319 68.05 92.6319 67.35C92.5319 67.25 92.5319 67.25 92.5319 67.35C92.5319 67.35 92.5319 67.65 92.5319 67.85C92.5319 68.75 92.5319 69.65 92.7319 70.45C93.0319 72.05 93.7319 73.45 94.5319 74.45C95.4319 75.45 96.3319 76.15 97.0319 76.55C97.7319 76.95 98.1319 77.15 98.1319 77.15C98.1319 77.15 97.6319 77.15 96.8319 77.05C96.0319 76.95 94.8319 76.65 93.4319 75.75C92.1319 74.95 90.7319 73.35 89.9319 71.25C89.5319 70.25 89.3319 69.15 89.3319 67.95C89.3319 67.65 89.3319 67.45 89.3319 66.95C89.3319 66.45 89.4319 65.95 89.4319 65.45C89.5319 64.95 89.6319 64.45 89.7319 63.95L90.1319 62.65L90.4319 61.75C91.2319 62.25 91.9319 62.75 92.7319 63.35C93.1319 63.65 93.5319 63.95 93.8319 64.25C93.9319 64.25 94.1319 64.45 94.3319 64.65Z" fill="#CFAA59"/>
<path id="Vector_24" d="M93.8319 72.45C94.1319 70.85 96.6319 71.35 96.3319 72.95C96.0319 74.55 93.5319 74.05 93.8319 72.45Z" fill="#CFAA59"/>
<path id="Vector_25" d="M97.9319 59.15C97.9319 60.75 95.4319 60.85 95.4319 59.25C95.4319 57.55 97.9319 57.55 97.9319 59.15Z" fill="#CFAA59"/>
<path id="Vector_26" d="M87.632 55.35C87.532 53.05 91.032 53.05 91.132 55.25C91.132 57.45 87.632 57.55 87.632 55.35Z" fill="#CFAA59"/>
<path id="Vector_27" d="M92.0319 48.05C92.0319 48.05 94.0319 48.15 95.0319 48.45C96.5319 48.95 98.2319 49.65 99.4319 50.65C99.8319 51.05 100.232 51.45 100.632 51.95C101.432 53.15 101.932 54.45 101.932 55.65C102.032 56.85 101.832 57.95 101.532 58.95C101.232 59.95 100.632 60.65 100.032 61.15C98.7319 62.25 97.4319 62.35 96.7319 62.35C95.9319 62.35 95.5319 62.25 95.5319 62.25C95.5319 62.25 95.9319 62.35 96.7319 62.25C97.5319 62.15 98.7319 61.85 99.7319 60.75C100.732 59.65 101.232 57.75 100.832 55.65C100.632 54.65 100.132 53.55 99.3319 52.75C99.2319 52.65 99.0319 52.45 98.8319 52.35C98.8319 52.35 96.1319 50.15 92.4319 50.55C92.3319 50.55 89.8319 50.25 88.0319 52.25C86.7319 53.75 83.6319 56.15 84.0319 64.55C84.2319 64.65 84.3319 64.75 84.5319 64.85C84.6319 64.95 84.8319 65.05 84.9319 65.15C85.0319 65.25 85.1319 65.35 85.2319 65.45C85.2319 65.25 85.2319 64.95 85.2319 64.75C85.3319 63.65 85.6319 62.65 86.1319 61.85C86.6319 61.05 87.2319 60.25 87.9319 59.75C88.6319 59.25 89.5319 58.95 90.1319 59.05C90.7319 59.15 90.9319 59.25 90.9319 59.25C90.9319 59.25 90.6319 59.25 90.2319 59.35C89.8319 59.45 89.5319 59.85 89.1319 60.35C88.1319 61.45 87.5319 63.45 87.5319 66.45L87.8319 69.75C87.8319 69.95 87.9319 70.05 87.9319 70.25C88.1319 71.55 88.4319 73.65 88.4319 73.65C88.4319 73.65 87.4319 71.55 86.6319 70.55C86.1319 69.85 85.4319 68.95 84.5319 68.05C84.8319 69.55 85.4319 71.05 86.2319 72.45C86.7319 73.35 87.0319 74.45 87.5319 75.35C85.0319 72.45 83.5319 69.35 82.7319 66.25C82.5319 66.15 82.4319 66.05 82.2319 65.85C81.8319 65.55 81.4319 65.35 81.0319 65.15C80.2319 64.75 79.4319 64.55 78.8319 64.45C78.1319 64.35 77.6319 64.55 77.2319 64.75C76.9319 64.95 76.7319 65.15 76.7319 65.15C76.7319 65.15 76.7319 64.95 76.9319 64.65C77.1319 64.35 77.5319 63.75 78.5319 63.55C79.5319 63.25 80.8319 63.35 82.0319 63.75C82.1319 63.75 82.1319 63.75 82.2319 63.85C82.1319 63.35 82.1319 62.95 82.1319 62.45C81.1319 50.65 90.2319 48.15 92.0319 48.05Z" fill="#CFAA59"/>
<path id="Vector_28" d="M97.132 36.95C96.232 33.85 95.732 30.15 96.032 26.35C96.032 25.95 96.132 25.45 96.132 25.05C95.932 25.35 95.732 25.75 95.532 26.05C95.032 27.05 94.732 28.25 94.632 29.75C94.332 32.55 94.732 36.15 95.932 40.05C96.232 41.05 96.632 41.95 97.032 43.05C97.432 44.15 97.832 45.25 98.232 46.45C98.532 47.45 98.832 48.55 98.932 49.85C97.932 49.25 96.932 48.75 95.832 48.35C95.732 47.95 95.632 47.45 95.632 47.05C95.332 45.95 95.032 44.85 94.732 43.75C94.432 42.75 94.032 41.55 93.832 40.55C92.932 36.25 92.932 32.55 93.632 29.55C93.932 28.05 94.432 26.75 95.132 25.75C95.532 25.15 95.932 24.65 96.332 24.15C96.832 21.25 97.532 18.55 98.132 16.05C98.532 14.55 98.832 13.05 98.932 11.65C99.132 10.25 99.232 8.95002 99.132 7.75002C98.932 5.35002 98.432 3.45002 98.032 2.25002C97.632 0.95002 97.232 0.250019 97.232 0.250019C97.232 0.250019 97.632 0.850021 98.232 2.15002C98.832 3.35002 99.632 5.25002 100.032 7.65002C100.232 8.95002 100.332 10.25 100.232 11.75C100.132 13.25 99.932 14.75 99.632 16.35C99.232 18.35 98.732 20.45 98.332 22.65C98.332 22.65 98.332 22.65 98.432 22.65V22.75C98.432 22.75 98.432 22.75 98.332 22.75C98.132 23.95 97.932 25.15 97.832 26.45C97.532 30.05 97.832 33.45 98.532 36.55C99.232 39.65 100.232 42.35 100.832 44.75C101.432 47.15 101.632 49.15 101.632 50.45C101.632 51.85 101.532 52.55 101.532 52.55C101.532 52.55 101.632 49.45 99.932 44.95C99.232 42.75 98.032 40.15 97.132 36.95Z" fill="#CFAA59"/>
<path id="Vector_29" d="M92.032 35.45C91.832 35.95 91.632 36.65 91.632 37.45C91.632 38.25 91.732 39.15 91.932 40.15C92.332 42.25 93.332 44.65 94.132 47.65V47.75C93.832 47.65 93.432 47.65 93.032 47.55H92.932C92.632 47.55 92.232 47.45 91.932 47.55C91.532 44.75 90.932 42.35 90.832 40.25C90.732 39.15 90.832 38.15 90.932 37.25C91.132 36.45 91.432 35.75 91.732 35.25C92.132 34.75 92.432 34.55 92.632 34.35C92.832 34.15 93.032 34.15 93.032 34.15C93.032 34.15 92.932 34.25 92.732 34.45C92.532 34.65 92.232 34.95 92.032 35.45Z" fill="#CFAA59"/>
<path id="Vector_30" d="M92.9319 56.15C92.4319 56.55 91.9319 56.95 91.3319 57.15C92.0319 56.75 92.5319 56.05 92.5319 55.05C92.5319 54.25 92.1319 53.65 91.6319 53.25C91.8319 53.05 91.9319 52.75 92.0319 52.45C92.1319 52.05 92.2319 51.55 92.2319 51.05C93.4319 50.85 94.9319 51.25 94.9319 51.25C94.5319 52.55 93.9319 55.35 92.9319 56.15Z" fill="#CFAA59"/>
<path id="Vector_31" d="M98.432 53.05C98.132 53.55 97.632 54.05 97.032 54.25C96.732 54.35 96.432 54.45 96.132 54.45C95.832 54.45 95.232 54.45 94.632 55.15L95.632 51.25C95.732 51.25 97.832 52.15 98.532 52.75C98.532 52.85 98.532 52.95 98.432 53.05Z" fill="#CFAA59"/>
<path id="Vector_32" d="M83.5319 42.95V43.25C83.5319 43.45 83.5319 43.55 83.6319 43.75C83.7319 44.35 83.9319 44.85 84.2319 45.25C84.5319 45.55 84.9319 45.75 85.2319 45.85C85.5319 45.95 85.7319 45.95 85.7319 45.95C85.7319 45.95 85.5319 46.05 85.2319 46.15C84.9319 46.25 84.3319 46.35 83.7319 46.15C83.4319 46.05 83.0319 45.75 82.8319 45.45C82.5319 45.15 82.3319 44.75 82.1319 44.35C82.0319 44.15 81.9319 43.95 81.9319 43.75C81.9319 43.65 81.8319 43.55 81.8319 43.45C81.8319 43.45 81.8319 43.25 81.7319 43.25L81.6319 42.95C81.5319 42.15 81.4319 41.35 81.3319 40.55H81.4319C82.2319 40.75 83.1319 41.05 83.8319 41.25C84.0319 41.35 84.1319 41.35 84.2319 41.35C84.3319 41.35 84.4319 41.45 84.5319 41.45C84.7319 41.55 84.9319 41.65 85.1319 41.75C85.5319 41.95 85.8319 42.25 86.1319 42.55C86.4319 42.85 86.6319 43.25 86.7319 43.55C86.9319 44.25 86.8319 44.75 86.7319 45.05C86.6319 45.35 86.5319 45.55 86.5319 45.55C86.5319 45.55 86.5319 45.35 86.4319 45.05C86.3319 44.75 86.2319 44.35 85.8319 43.95C85.5319 43.55 85.0319 43.35 84.4319 43.15C84.2319 43.15 84.1319 43.05 83.9319 43.05L83.6319 42.95C83.7319 42.95 83.6319 42.85 83.5319 42.95C83.6319 42.95 83.6319 42.95 83.5319 42.95C83.6319 42.95 83.6319 42.95 83.5319 42.95Z" fill="#CFAA59"/>
<path id="Vector_33" d="M86.232 48.75C86.432 48.55 86.532 48.45 86.532 48.45C86.532 48.45 86.532 48.65 86.432 48.85C86.332 49.15 86.132 49.55 85.632 49.95C85.332 50.15 85.032 50.25 84.732 50.25C84.332 50.25 84.032 50.25 83.632 50.25C83.432 50.25 83.232 50.15 83.132 50.15C83.032 50.15 82.932 50.05 82.832 50.05C82.832 50.05 82.732 49.95 82.632 49.95L82.432 49.85C81.832 49.55 81.232 49.15 80.632 48.85C81.232 48.35 81.832 47.95 82.332 47.45C82.532 47.35 82.532 47.35 82.632 47.25C82.732 47.25 82.832 47.15 82.832 47.15C83.032 47.05 83.132 46.95 83.332 46.85C83.632 46.65 84.032 46.55 84.432 46.55C84.832 46.55 85.132 46.55 85.432 46.65C86.032 46.85 86.332 47.15 86.532 47.35C86.732 47.55 86.832 47.75 86.832 47.75C86.832 47.75 86.732 47.65 86.432 47.55C86.132 47.45 85.832 47.35 85.432 47.45C85.032 47.45 84.632 47.65 84.232 48.05C84.132 48.15 84.032 48.25 83.932 48.35L83.732 48.55C83.732 48.55 83.532 48.65 83.632 48.65V48.75C83.732 48.85 83.932 48.85 84.032 48.95C84.532 49.15 84.932 49.25 85.332 49.25C85.732 49.15 86.032 48.95 86.232 48.75Z" fill="#CFAA59"/>
<path id="Vector_34" d="M88.932 38.95C89.332 39.55 89.732 40.05 90.032 40.65L90.132 40.85C90.132 40.95 90.232 41.05 90.232 41.05C90.232 41.15 90.332 41.25 90.332 41.35C90.432 41.55 90.432 41.75 90.532 41.85C90.632 42.25 90.632 42.55 90.632 42.95C90.632 43.35 90.532 43.65 90.432 43.85C90.132 44.35 89.732 44.65 89.532 44.75C89.232 44.85 89.132 44.85 89.132 44.85C89.132 44.85 89.232 44.75 89.432 44.55C89.632 44.35 89.732 44.05 89.832 43.65C89.832 43.25 89.732 42.85 89.432 42.35C89.332 42.25 89.332 42.05 89.232 41.95L89.132 41.75L89.032 41.85L88.932 42.05C88.832 42.15 88.732 42.25 88.732 42.45C88.432 42.95 88.332 43.35 88.332 43.75C88.332 44.15 88.432 44.55 88.532 44.75C88.632 45.05 88.732 45.15 88.732 45.15C88.732 45.15 88.632 45.05 88.332 44.95C88.132 44.75 87.732 44.45 87.532 43.95C87.432 43.65 87.332 43.35 87.332 42.95C87.332 42.55 87.432 42.25 87.532 41.85C87.632 41.65 87.632 41.55 87.732 41.35C87.732 41.25 87.832 41.15 87.832 41.15C87.932 41.05 87.932 41.05 88.032 40.85C88.032 40.25 88.432 39.55 88.932 38.95Z" fill="#CFAA59"/>
<path id="Vector_35" d="M87.2319 46.85C87.2319 45.25 89.7319 45.15 89.7319 46.75C89.7319 48.45 87.2319 48.45 87.2319 46.85Z" fill="#CFAA59"/>
<path id="Vector_36" d="M102.032 90.95C101.832 89.45 101.332 87.65 100.332 86.05C99.932 85.25 99.332 84.55 98.732 83.85C98.232 83.25 97.632 82.75 97.032 82.25C96.732 81.95 96.432 81.75 96.032 81.55C95.132 80.95 94.132 80.35 93.132 79.95C92.132 79.55 91.132 79.25 90.232 79.05C88.332 78.65 86.432 78.45 84.932 78.55C83.432 78.65 82.232 78.95 81.432 79.35C80.632 79.65 80.232 79.95 80.232 79.95C80.232 79.95 80.532 79.55 81.232 79.05C81.932 78.55 83.132 77.85 84.732 77.45C86.332 77.05 88.332 76.85 90.532 77.15C91.632 77.25 92.732 77.55 93.932 77.95C95.132 78.35 96.232 78.95 97.332 79.65C97.432 79.75 97.532 79.75 97.532 79.85C98.232 80.35 98.832 80.85 99.332 81.35C100.532 82.55 101.432 83.85 102.032 85.15C103.032 87.25 103.232 89.25 103.132 90.95C103.032 92.65 102.732 93.85 102.432 94.75C102.232 95.55 101.932 95.95 102.032 95.95C102.032 95.95 102.132 95.45 102.132 94.55C102.232 93.75 102.232 92.45 102.032 90.95Z" fill="#CFAA59"/>
<path id="Vector_37" d="M98.132 79.05C98.432 77.95 98.932 76.95 99.432 75.95C99.632 75.45 99.932 74.95 100.132 74.45C100.232 74.15 100.332 73.95 100.432 73.75C100.532 73.55 100.632 73.35 100.732 73.05C101.032 72.15 101.232 71.25 101.232 70.35C101.332 68.65 100.932 66.95 100.232 65.75C99.632 64.55 98.632 63.75 97.932 63.45C97.232 63.05 96.732 62.95 96.732 62.95C96.732 62.95 97.232 62.95 98.032 63.15C98.832 63.35 100.132 63.95 101.132 65.15C102.132 66.35 102.932 68.25 103.132 70.35C103.232 71.45 103.132 72.55 102.732 73.75C102.632 74.05 102.532 74.35 102.432 74.65C102.332 74.95 102.232 75.25 102.132 75.45L101.432 76.95C100.932 77.95 100.532 78.95 100.132 79.85C100.032 80.15 99.832 80.55 99.732 80.85C99.132 80.25 98.532 79.75 97.932 79.35C98.032 79.25 98.132 79.15 98.132 79.05Z" fill="#CFAA59"/>
<path id="Vector_38" d="M98.532 84.35L98.432 84.95C98.332 85.35 98.232 85.75 98.232 86.15C98.232 86.95 98.232 87.65 98.432 88.35C98.732 89.65 99.432 90.65 100.032 91.15C100.632 91.75 101.032 91.95 101.032 91.95C101.032 91.95 100.532 91.85 99.832 91.45C99.032 91.05 98.032 90.15 97.332 88.75C97.032 88.05 96.732 87.15 96.632 86.15C96.532 85.65 96.532 85.15 96.632 84.65C96.732 84.15 96.732 83.65 96.832 83.15C96.832 83.05 96.832 82.85 96.932 82.75C97.532 83.35 98.032 83.85 98.532 84.35Z" fill="#CFAA59"/>
</g>
</g>
</svg>
