<svg width="104" height="104" viewBox="0 0 104 104" fill="none" xmlns="http://www.w3.org/2000/svg">
<g id="Group">
<path id="Vector" d="M85.3319 12.45C86.4319 10.45 88.1319 8.34999 90.5319 6.44999C91.7319 5.44999 93.0319 4.54999 94.5319 3.84999C95.2319 3.44999 96.0319 3.04999 96.8319 2.74999L97.2319 2.64999L97.8319 2.54999C98.2319 2.44999 98.6319 2.34999 98.9319 2.24999C99.7319 2.14999 100.432 2.14999 101.232 2.04999C101.332 2.84999 101.432 3.54999 101.432 4.24999C101.432 4.64999 101.432 5.04999 101.432 5.44999C101.432 5.64999 101.432 5.84999 101.332 6.04999V6.34999V6.54999C101.132 7.44999 100.832 8.34999 100.532 9.14999C99.8319 10.75 98.9319 12.15 98.0319 13.35C96.1319 15.75 93.9319 17.45 92.0319 18.55C90.0319 19.65 88.3319 20.25 87.1319 20.45C85.9319 20.75 85.2319 20.65 85.2319 20.75C85.2319 20.75 87.9319 19.95 91.1319 17.25C92.7319 15.85 94.4319 14.05 95.8319 11.75C96.4319 10.55 97.0319 9.24999 97.5319 7.94999C97.7319 7.24999 97.9319 6.64999 98.0319 5.94999V5.84999L97.8319 5.94999C97.1319 6.14999 96.4319 6.44999 95.8319 6.74999C94.5319 7.34999 93.2319 8.04999 92.1319 8.74999C89.8319 10.25 88.0319 11.85 86.6319 13.45C85.3319 15.05 84.5319 16.55 84.2319 17.65C83.9319 18.75 83.9319 19.45 83.9319 19.45C83.9319 19.45 83.7319 18.75 83.7319 17.55C83.7319 16.35 84.2319 14.45 85.3319 12.45Z" fill="#CFAA59"/>
<path id="Vector_2" d="M82.432 20.55C84.032 20.55 84.032 23.05 82.432 23.05C80.832 23.05 80.832 20.55 82.432 20.55Z" fill="#CFAA59"/>
<path id="Vector_3" d="M91.232 14.85C88.932 14.85 88.932 11.35 91.232 11.35C93.532 11.35 93.532 14.85 91.232 14.85Z" fill="#CFAA59"/>
<path id="Vector_4" d="M72.632 29.15C72.632 29.05 72.632 28.95 72.732 28.85C72.732 28.75 72.832 28.65 72.832 28.45C72.932 28.25 72.932 27.95 73.032 27.75C73.232 27.25 73.432 26.85 73.732 26.45C74.032 26.05 74.432 25.75 74.732 25.65C75.532 25.35 76.132 25.45 76.532 25.55C76.932 25.65 77.132 25.75 77.132 25.75C77.132 25.75 76.932 25.75 76.532 25.85C76.232 25.95 75.732 26.15 75.332 26.55C75.032 26.95 74.832 27.55 74.732 28.25C74.732 28.45 74.732 28.65 74.632 28.85V29.15C74.632 29.25 74.632 29.15 74.632 29.25C74.632 29.25 74.732 29.25 74.832 29.15L75.132 29.05C75.332 28.95 75.532 28.95 75.732 28.85C76.432 28.55 76.932 28.25 77.232 27.85C77.532 27.45 77.732 26.95 77.832 26.55C77.932 26.15 77.932 25.95 77.932 25.95C77.932 25.95 78.032 26.15 78.132 26.55C78.232 26.95 78.432 27.55 78.232 28.25C78.132 28.65 77.932 29.05 77.632 29.45C77.332 29.85 76.932 30.15 76.532 30.45C76.332 30.55 76.132 30.75 75.932 30.85C75.832 30.95 75.732 30.95 75.632 31.05C75.532 31.15 75.432 31.15 75.232 31.25C74.332 31.55 73.432 31.85 72.432 32.25H72.332C72.332 31.25 72.332 30.35 72.532 29.45L72.632 29.15Z" fill="#CFAA59"/>
<path id="Vector_5" d="M73.232 21.25C73.332 21.25 73.432 21.15 73.432 21.15C73.532 21.15 73.632 21.05 73.732 21.05C73.932 20.95 74.132 20.95 74.332 20.85C74.732 20.75 75.132 20.75 75.532 20.75C75.932 20.75 76.332 20.85 76.632 21.05C77.232 21.45 77.532 21.95 77.632 22.25C77.732 22.55 77.732 22.75 77.732 22.75C77.732 22.75 77.632 22.65 77.332 22.45C77.132 22.25 76.732 22.05 76.232 21.95C75.832 21.95 75.332 22.05 74.732 22.35C74.632 22.45 74.432 22.55 74.332 22.55L74.132 22.65C74.132 22.65 74.032 22.65 74.132 22.65L74.232 22.75L74.432 22.95C74.532 23.05 74.732 23.15 74.832 23.25C75.332 23.65 75.832 23.85 76.332 23.85C76.832 23.85 77.232 23.75 77.532 23.65C77.832 23.55 78.032 23.45 78.032 23.45C78.032 23.45 77.932 23.65 77.732 23.85C77.532 24.15 77.232 24.55 76.532 24.75C76.232 24.85 75.832 24.95 75.432 24.95C75.032 24.95 74.632 24.85 74.232 24.65C74.032 24.55 73.832 24.45 73.632 24.35C73.532 24.25 73.432 24.25 73.332 24.15C73.232 24.05 73.232 24.05 73.032 23.95C72.432 23.55 71.732 23.05 71.032 22.45H70.932C71.632 21.95 72.232 21.55 72.932 21.15L73.232 21.25Z" fill="#CFAA59"/>
<path id="Vector_6" d="M79.732 26.75C80.032 26.55 80.132 26.45 80.132 26.45C80.132 26.45 80.032 26.65 79.932 26.95C79.832 27.25 79.732 27.65 79.732 28.15C79.732 28.65 79.932 29.05 80.332 29.55C80.432 29.65 80.532 29.85 80.632 29.95L80.832 30.15C80.832 30.25 80.932 30.35 80.932 30.25L81.032 30.05C81.132 29.85 81.232 29.75 81.232 29.65C81.532 29.05 81.632 28.55 81.632 28.15C81.632 27.75 81.332 27.35 81.232 27.15C81.032 26.95 80.932 26.85 80.932 26.75C80.932 26.75 81.132 26.75 81.432 26.85C81.732 26.95 82.232 27.15 82.532 27.75C82.732 28.05 82.832 28.45 82.832 28.85C82.832 29.25 82.832 29.65 82.732 30.05C82.732 30.25 82.632 30.45 82.532 30.65C82.532 30.75 82.432 30.85 82.432 30.95C82.432 30.95 82.332 31.05 82.332 31.15L82.232 31.45C81.832 32.15 81.432 32.85 81.032 33.55C80.532 32.85 80.032 32.25 79.632 31.55C79.532 31.35 79.532 31.35 79.432 31.25C79.332 31.15 79.332 31.05 79.332 30.95C79.232 30.75 79.132 30.55 79.032 30.35C78.932 29.95 78.832 29.55 78.732 29.15C78.732 28.75 78.732 28.35 78.932 28.05C79.032 27.35 79.432 26.95 79.732 26.75Z" fill="#CFAA59"/>
<g id="Group_2">
<path id="Vector_7" d="M64.932 9.04998L65.232 8.74998L65.432 8.54998C66.232 7.84998 67.032 7.24998 67.832 6.64998C69.532 5.64998 71.332 5.04998 72.832 4.84998C74.332 4.64998 75.532 4.84998 76.332 5.14998C77.132 5.34998 77.532 5.54998 77.532 5.54998C77.532 5.54998 77.132 5.54998 76.332 5.64998C75.532 5.74998 74.532 5.94998 73.332 6.44998C72.132 6.94998 70.832 7.74998 69.532 8.84998C68.932 9.44998 68.232 10.05 67.632 10.75C67.532 10.85 67.632 10.85 67.632 10.85C67.632 10.85 67.932 10.85 68.132 10.85C69.032 10.95 69.932 10.85 70.732 10.75C72.332 10.55 73.732 9.84998 74.732 8.94998C75.732 8.14998 76.432 7.14998 76.832 6.54998C77.232 5.84998 77.432 5.44998 77.432 5.44998C77.432 5.44998 77.432 5.94998 77.232 6.74998C77.032 7.54998 76.732 8.74998 75.832 10.05C74.932 11.35 73.332 12.75 71.332 13.45C70.332 13.75 69.132 13.95 68.032 14.05C67.732 14.05 67.532 14.05 67.032 14.05C66.532 14.05 66.032 13.95 65.532 13.85C65.032 13.75 64.532 13.65 64.032 13.55L62.732 13.15L61.832 12.85C62.432 12.05 62.832 11.35 63.432 10.55C63.732 10.15 64.032 9.74998 64.432 9.44998C64.532 9.34998 64.732 9.14998 64.932 9.04998Z" fill="#CFAA59"/>
<path id="Vector_8" d="M72.732 9.65001C71.132 9.35001 71.632 6.85001 73.232 7.25001C74.832 7.55001 74.332 9.95001 72.732 9.65001Z" fill="#CFAA59"/>
<path id="Vector_9" d="M59.532 5.25C61.132 5.25 61.132 7.75 59.532 7.75C57.832 7.75 57.832 5.25 59.532 5.25Z" fill="#CFAA59"/>
<path id="Vector_10" d="M55.432 15.55C53.232 15.55 53.232 12.05 55.432 12.05C57.732 12.05 57.732 15.55 55.432 15.55Z" fill="#CFAA59"/>
<path id="Vector_11" d="M48.332 10.95C48.332 10.95 48.432 8.94997 48.732 7.94997C49.232 6.44997 49.932 4.84997 51.032 3.54997C51.432 3.14997 51.932 2.74997 52.332 2.34997C53.532 1.64997 54.932 1.24997 56.132 1.24997C57.332 1.14997 58.432 1.34997 59.432 1.74997C60.232 2.04997 61.032 2.64997 61.532 3.24997C62.532 4.54997 62.632 5.84997 62.632 6.54997C62.632 7.34997 62.432 7.74997 62.432 7.74997C62.432 7.74997 62.532 7.34997 62.432 6.54997C62.332 5.74997 62.132 4.54997 61.032 3.54997C59.932 2.54997 58.032 1.94997 55.932 2.34997C54.932 2.54997 53.832 2.94997 53.032 3.74997C52.832 3.84997 52.732 4.04997 52.632 4.14997C52.632 4.14997 50.432 6.84997 50.632 10.55C50.632 10.65 50.332 13.15 52.232 14.95C53.632 16.25 56.032 19.45 64.432 19.25C64.532 19.05 64.632 18.95 64.732 18.75C64.832 18.65 64.932 18.45 65.032 18.35C65.132 18.25 65.232 18.25 65.332 18.15C65.132 18.15 64.832 18.15 64.632 18.15C63.532 18.05 62.632 17.65 61.732 17.25C60.932 16.75 60.132 16.15 59.632 15.45C59.132 14.75 58.932 13.85 59.032 13.25C59.132 12.65 59.232 12.45 59.232 12.45C59.232 12.45 59.232 12.75 59.332 13.15C59.432 13.55 59.832 13.95 60.332 14.35C61.432 15.35 63.432 16.05 66.432 16.15L69.732 15.95C69.932 15.95 70.032 15.85 70.232 15.85C71.532 15.75 73.632 15.35 73.632 15.35C73.632 15.35 71.532 16.35 70.432 17.15C69.732 17.65 68.832 18.35 67.832 19.15C69.332 18.85 70.832 18.25 72.232 17.55C73.132 17.05 74.232 16.75 75.132 16.25C72.232 18.65 69.032 20.15 65.932 20.85C65.832 20.95 65.732 21.15 65.532 21.35C65.232 21.75 65.032 22.15 64.832 22.55C64.432 23.35 64.132 24.15 64.132 24.75C64.032 25.45 64.232 25.95 64.432 26.35C64.632 26.75 64.832 26.85 64.732 26.85C64.732 26.85 64.532 26.85 64.232 26.65C63.932 26.45 63.332 26.05 63.132 24.95C62.932 23.95 63.032 22.65 63.432 21.45C63.432 21.35 63.432 21.35 63.532 21.25C63.032 21.35 62.632 21.35 62.132 21.35C50.632 21.85 48.332 12.75 48.332 10.95Z" fill="#CFAA59"/>
<path id="Vector_12" d="M37.332 5.55001C34.132 6.45001 30.532 6.75001 26.732 6.35001C26.232 6.35001 25.832 6.25001 25.432 6.25001C25.732 6.45001 26.032 6.65001 26.432 6.85001C27.432 7.35001 28.632 7.65001 30.132 7.85001C32.932 8.25001 36.532 7.95001 40.432 6.85001C41.432 6.55001 42.332 6.25001 43.432 5.85001C44.532 5.45001 45.632 5.05001 46.832 4.75001C47.832 4.45001 48.932 4.25001 50.232 4.15001C49.632 5.15001 49.132 6.15001 48.732 7.25001C48.332 7.35001 47.832 7.35001 47.432 7.45001C46.332 7.65001 45.232 7.95001 44.132 8.25001C43.132 8.55001 41.932 8.85001 40.832 9.05001C36.532 9.85001 32.732 9.75001 29.832 9.05001C28.332 8.65001 27.132 8.15001 26.132 7.55001C25.532 7.15001 25.032 6.75001 24.632 6.25001C21.732 5.75001 19.032 4.85001 16.632 4.25001C15.132 3.85001 13.632 3.55001 12.232 3.35001C10.832 3.15001 9.53197 3.05001 8.43197 3.15001C6.03197 3.25001 4.13197 3.75001 2.83197 4.15001C1.53197 4.55001 0.83197 4.85001 0.83197 4.85001C0.83197 4.85001 1.43197 4.45001 2.73197 3.85001C3.93197 3.25001 5.83197 2.55001 8.33197 2.15001C9.53197 1.95001 10.932 1.95001 12.432 2.05001C13.932 2.15001 15.432 2.35001 17.032 2.75001C19.032 3.15001 21.132 3.75001 23.332 4.15001V4.05001H23.432C23.432 4.05001 23.432 4.05001 23.432 4.15001C24.632 4.35001 25.832 4.65001 27.132 4.75001C30.732 5.15001 34.132 4.95001 37.232 4.25001C40.332 3.65001 43.032 2.65001 45.432 2.15001C47.832 1.65001 49.832 1.45001 51.232 1.45001C52.632 1.45001 53.332 1.65001 53.332 1.55001C53.332 1.55001 50.232 1.45001 45.732 2.95001C43.132 3.65001 40.532 4.75001 37.332 5.55001Z" fill="#CFAA59"/>
<path id="Vector_13" d="M35.732 10.65C36.232 10.95 36.832 11.05 37.632 11.15C38.432 11.15 39.332 11.05 40.432 10.85C42.532 10.45 44.932 9.55 48.032 8.75H48.132C48.032 9.05 47.932 9.45 47.932 9.85V9.95C47.932 10.25 47.832 10.65 47.832 10.95C45.032 11.35 42.532 11.85 40.432 11.95C39.332 11.95 38.332 11.95 37.532 11.75C36.732 11.55 36.032 11.25 35.532 10.85C35.032 10.45 34.832 10.15 34.632 9.85C34.432 9.65 34.432 9.45 34.432 9.45C34.432 9.45 34.532 9.55 34.732 9.75C34.932 10.15 35.232 10.45 35.732 10.65Z" fill="#CFAA59"/>
<path id="Vector_14" d="M56.4319 10.25C56.8319 10.75 57.1319 11.35 57.4319 11.85C57.0319 11.15 56.3319 10.65 55.3319 10.65C54.5319 10.65 53.9319 10.95 53.5319 11.45C53.3319 11.25 53.0319 11.15 52.7319 11.05C52.3319 10.95 51.8319 10.85 51.3319 10.85C51.1319 9.65002 51.5319 8.15002 51.5319 8.15002C52.8319 8.45002 55.6319 9.25002 56.4319 10.25Z" fill="#CFAA59"/>
<path id="Vector_15" d="M53.4319 4.54998C53.9319 4.84998 54.4319 5.34998 54.6319 5.94998C54.7319 6.24998 54.8319 6.54998 54.8319 6.84998C54.8319 7.14998 54.8319 7.74998 55.4319 8.34998L51.5319 7.24998C51.5319 7.14998 52.4319 5.04998 53.1319 4.34998C53.2319 4.54998 53.3319 4.54998 53.4319 4.54998Z" fill="#CFAA59"/>
<path id="Vector_16" d="M43.032 19.25H43.332C43.532 19.25 43.632 19.25 43.832 19.15C44.432 19.05 44.932 18.85 45.332 18.55C45.632 18.25 45.832 17.85 45.932 17.55C46.032 17.25 46.032 17.05 46.032 17.05C46.032 17.05 46.132 17.25 46.232 17.55C46.332 17.85 46.432 18.45 46.132 19.15C46.032 19.45 45.732 19.85 45.432 20.05C45.132 20.35 44.732 20.55 44.332 20.75C44.132 20.85 43.932 20.95 43.732 20.95C43.632 20.95 43.532 21.05 43.432 21.05C43.432 21.05 43.232 21.05 43.232 21.15H42.932C42.132 21.25 41.332 21.25 40.532 21.35V21.25C40.832 20.45 41.032 19.55 41.332 18.85C41.432 18.65 41.432 18.55 41.432 18.45C41.432 18.35 41.532 18.25 41.532 18.15C41.632 17.95 41.732 17.75 41.832 17.55C42.032 17.15 42.332 16.85 42.632 16.55C42.932 16.25 43.332 16.05 43.632 16.05C44.332 15.85 44.832 15.95 45.132 16.05C45.432 16.15 45.632 16.25 45.632 16.25C45.632 16.25 45.432 16.25 45.132 16.35C44.832 16.45 44.432 16.55 44.032 16.85C43.632 17.15 43.432 17.65 43.232 18.25C43.232 18.45 43.132 18.55 43.132 18.75L43.032 19.05C43.032 19.05 42.932 19.25 43.032 19.25Z" fill="#CFAA59"/>
<path id="Vector_17" d="M48.932 16.75C48.732 16.55 48.632 16.45 48.632 16.45C48.632 16.45 48.832 16.45 49.032 16.55C49.332 16.65 49.732 16.85 50.032 17.35C50.232 17.65 50.332 17.95 50.332 18.25C50.332 18.65 50.332 18.95 50.232 19.35C50.232 19.55 50.132 19.75 50.132 19.85C50.132 19.95 50.032 20.05 50.032 20.15C50.032 20.15 49.932 20.25 49.932 20.35L49.832 20.55C49.532 21.15 49.132 21.75 48.732 22.35C48.232 21.75 47.832 21.15 47.432 20.65C47.332 20.45 47.332 20.45 47.232 20.35C47.232 20.25 47.132 20.15 47.132 20.15C47.032 19.95 46.932 19.85 46.932 19.65C46.832 19.35 46.732 18.95 46.632 18.55C46.632 18.15 46.632 17.85 46.732 17.55C46.932 16.95 47.232 16.65 47.532 16.45C47.732 16.25 47.832 16.25 47.832 16.25C47.832 16.25 47.732 16.35 47.632 16.65C47.532 16.95 47.432 17.25 47.432 17.65C47.432 18.05 47.632 18.45 47.932 18.95C48.032 19.05 48.132 19.15 48.232 19.25L48.332 19.45C48.332 19.55 48.432 19.65 48.432 19.55L48.532 19.35C48.632 19.25 48.632 19.05 48.732 18.95C48.932 18.45 49.132 18.05 49.032 17.65C49.232 17.25 49.032 16.95 48.932 16.75Z" fill="#CFAA59"/>
<path id="Vector_18" d="M39.132 13.85C39.732 13.45 40.332 13.05 40.932 12.75L41.132 12.65C41.232 12.65 41.332 12.55 41.332 12.55C41.432 12.55 41.532 12.45 41.632 12.45C41.832 12.35 42.032 12.35 42.132 12.25C42.532 12.15 42.832 12.15 43.232 12.15C43.632 12.15 43.932 12.25 44.132 12.35C44.632 12.65 44.832 13.05 44.932 13.35C45.032 13.65 45.032 13.75 45.032 13.75C45.032 13.75 44.932 13.65 44.732 13.45C44.532 13.25 44.232 13.15 43.832 13.05C43.432 13.05 43.032 13.15 42.532 13.45C42.432 13.55 42.332 13.55 42.132 13.65L41.932 13.75L42.032 13.85L42.232 14.15C42.332 14.25 42.432 14.35 42.532 14.35C42.932 14.65 43.432 14.85 43.832 14.85C44.232 14.85 44.632 14.75 44.832 14.65C45.132 14.55 45.232 14.45 45.232 14.45C45.232 14.45 45.132 14.55 45.032 14.85C44.832 15.05 44.532 15.45 44.032 15.65C43.732 15.75 43.432 15.85 43.032 15.85C42.632 15.85 42.332 15.75 41.932 15.65C41.732 15.55 41.632 15.55 41.432 15.45C41.332 15.45 41.232 15.35 41.232 15.35C41.132 15.35 41.132 15.25 40.932 15.15C40.332 14.75 39.732 14.35 39.132 13.85Z" fill="#CFAA59"/>
<path id="Vector_19" d="M47.032 15.75C45.432 15.75 45.432 13.25 47.032 13.25C48.632 13.25 48.632 15.75 47.032 15.75Z" fill="#CFAA59"/>
<path id="Vector_20" d="M91.332 1.84999C89.832 2.04999 88.032 2.44999 86.432 3.44999C85.632 3.84999 84.932 4.44999 84.232 5.04999C83.632 5.54999 83.132 6.04999 82.632 6.64999C82.332 6.94999 82.132 7.24999 81.832 7.64999C81.132 8.54999 80.632 9.54999 80.232 10.45C79.832 11.45 79.432 12.35 79.232 13.35C78.732 15.25 78.532 17.15 78.632 18.65C78.632 20.25 78.932 21.45 79.232 22.25C79.532 23.05 79.832 23.45 79.832 23.45C79.832 23.45 79.432 23.15 78.932 22.35C78.432 21.65 77.832 20.35 77.432 18.75C77.032 17.15 76.932 15.15 77.232 12.95C77.432 11.85 77.632 10.75 78.132 9.54999C78.532 8.44999 79.132 7.24999 79.932 6.24999C80.032 6.14999 80.032 6.04999 80.132 6.04999C80.632 5.44999 81.132 4.84999 81.732 4.24999C82.932 3.14999 84.232 2.24999 85.632 1.64999C87.732 0.749989 89.832 0.549989 91.432 0.649989C92.932 0.849989 94.232 1.24999 95.132 1.54999C95.932 1.84999 96.332 2.04999 96.332 2.04999C96.332 2.04999 95.832 1.94999 94.932 1.84999C94.132 1.74999 92.832 1.64999 91.332 1.84999Z" fill="#CFAA59"/>
<path id="Vector_21" d="M79.432 5.55C78.332 5.15 77.332 4.75 76.332 4.25C75.832 4.05 75.332 3.75 74.832 3.45C74.532 3.35 74.332 3.25 74.132 3.15C73.932 3.05 73.732 2.95 73.432 2.85C72.532 2.55 71.632 2.35 70.732 2.25C68.932 2.15 67.332 2.45 66.132 3.05C64.932 3.65 64.132 4.55 63.732 5.25C63.332 5.95 63.232 6.45 63.232 6.45C63.232 6.45 63.232 5.95 63.432 5.15C63.632 4.35 64.232 3.15 65.532 2.05C66.832 1.05 68.632 0.25 70.832 0.25C71.932 0.25 73.032 0.35 74.232 0.65C74.532 0.75 74.832 0.85 75.032 0.95C75.332 1.05 75.632 1.25 75.832 1.35L77.332 2.05C78.332 2.55 79.332 2.95 80.232 3.35C80.532 3.45 80.932 3.65 81.232 3.75C80.632 4.25 80.132 4.85 79.632 5.55C79.632 5.55 79.532 5.55 79.432 5.55Z" fill="#CFAA59"/>
<path id="Vector_22" d="M84.7319 5.25001L85.3319 5.45001C85.7319 5.55001 86.1319 5.65001 86.5319 5.65001C87.3319 5.75001 88.0319 5.65001 88.7319 5.45001C90.0319 5.15001 91.0319 4.45001 91.6319 3.95001C92.2319 3.35001 92.4319 2.95001 92.4319 2.95001C92.4319 2.95001 92.3319 3.45001 91.9319 4.15001C91.5319 4.85001 90.6319 5.95001 89.1319 6.55001C88.4319 6.85001 87.5319 7.15001 86.5319 7.25001C86.0319 7.25001 85.5319 7.25001 85.0319 7.25001C84.5319 7.15001 84.1319 7.15001 83.5319 7.05001C83.4319 7.05001 83.2319 6.95001 83.1319 6.95001C83.6319 6.25001 84.1319 5.75001 84.7319 5.25001Z" fill="#CFAA59"/>
</g>
<g id="Group_3">
<path id="Vector_23" d="M94.3319 39.35L94.6319 39.05L94.8319 38.85C95.5319 38.05 96.2319 37.25 96.7319 36.35C97.8319 34.65 98.4319 32.95 98.6319 31.45C98.8319 29.95 98.6319 28.75 98.4319 27.95C98.2319 27.25 98.0319 26.85 98.0319 26.85C98.0319 26.85 98.0319 27.25 97.9319 28.05C97.8319 28.85 97.6319 29.85 97.0319 31.05C96.5319 32.25 95.6319 33.55 94.5319 34.75C93.9319 35.35 93.3319 35.95 92.6319 36.65C92.5319 36.75 92.5319 36.75 92.5319 36.65C92.5319 36.65 92.5319 36.35 92.5319 36.15C92.5319 35.25 92.5319 34.35 92.7319 33.55C93.0319 31.95 93.7319 30.55 94.5319 29.55C95.4319 28.55 96.3319 27.85 97.0319 27.45C97.7319 27.05 98.1319 26.85 98.1319 26.85C98.1319 26.85 97.6319 26.85 96.8319 26.95C96.0319 27.05 94.8319 27.35 93.4319 28.25C92.1319 29.05 90.7319 30.65 89.9319 32.75C89.5319 33.75 89.3319 34.85 89.3319 36.05C89.3319 36.35 89.3319 36.55 89.3319 37.05C89.3319 37.55 89.4319 38.05 89.4319 38.55C89.5319 39.05 89.6319 39.55 89.7319 40.05L90.1319 41.35L90.4319 42.25C91.2319 41.75 91.9319 41.25 92.7319 40.65C93.1319 40.35 93.5319 40.05 93.8319 39.75C93.9319 39.75 94.1319 39.55 94.3319 39.35Z" fill="#CFAA59"/>
<path id="Vector_24" d="M93.8319 31.55C94.1319 33.15 96.6319 32.65 96.3319 31.05C96.0319 29.45 93.5319 29.95 93.8319 31.55Z" fill="#CFAA59"/>
<path id="Vector_25" d="M97.9319 44.85C97.9319 43.25 95.4319 43.15 95.4319 44.75C95.4319 46.45 97.9319 46.45 97.9319 44.85Z" fill="#CFAA59"/>
<path id="Vector_26" d="M87.632 48.65C87.532 50.95 91.032 50.95 91.132 48.75C91.132 46.55 87.632 46.45 87.632 48.65Z" fill="#CFAA59"/>
<path id="Vector_27" d="M92.0319 55.95C92.0319 55.95 94.0319 55.85 95.0319 55.55C96.5319 55.05 98.2319 54.35 99.4319 53.35C99.8319 52.95 100.232 52.55 100.632 52.05C101.432 50.85 101.932 49.55 101.932 48.35C102.032 47.15 101.832 46.05 101.532 45.05C101.232 44.05 100.632 43.35 100.032 42.85C98.7319 41.75 97.4319 41.65 96.7319 41.65C95.9319 41.65 95.5319 41.75 95.5319 41.75C95.5319 41.75 95.9319 41.65 96.7319 41.75C97.5319 41.85 98.7319 42.15 99.7319 43.25C100.732 44.35 101.232 46.25 100.832 48.35C100.632 49.35 100.132 50.45 99.3319 51.25C99.2319 51.35 99.0319 51.55 98.8319 51.65C98.8319 51.65 96.1319 53.85 92.4319 53.45C92.3319 53.45 89.8319 53.75 88.0319 51.75C86.7319 50.25 83.6319 47.85 84.0319 39.45C84.2319 39.35 84.3319 39.25 84.5319 39.15C84.6319 39.05 84.8319 38.95 84.9319 38.85C85.0319 38.75 85.1319 38.65 85.2319 38.55C85.2319 38.75 85.2319 39.05 85.2319 39.25C85.3319 40.35 85.6319 41.35 86.1319 42.15C86.6319 42.95 87.2319 43.75 87.9319 44.25C88.6319 44.75 89.5319 45.05 90.1319 44.95C90.7319 44.85 90.9319 44.75 90.9319 44.75C90.9319 44.75 90.6319 44.75 90.2319 44.65C89.8319 44.55 89.5319 44.15 89.1319 43.65C88.1319 42.55 87.5319 40.55 87.5319 37.55L87.8319 34.25C87.8319 34.05 87.9319 33.95 87.9319 33.75C88.1319 32.45 88.4319 30.35 88.4319 30.35C88.4319 30.35 87.4319 32.45 86.6319 33.45C86.1319 34.15 85.4319 35.05 84.5319 35.95C84.8319 34.45 85.4319 32.95 86.2319 31.55C86.7319 30.65 87.0319 29.55 87.5319 28.65C85.0319 31.55 83.5319 34.65 82.7319 37.75C82.5319 37.85 82.4319 37.95 82.2319 38.15C81.8319 38.45 81.4319 38.65 81.0319 38.85C80.2319 39.25 79.4319 39.45 78.8319 39.55C78.1319 39.65 77.6319 39.45 77.2319 39.25C76.9319 39.05 76.7319 38.85 76.7319 38.85C76.7319 38.85 76.7319 39.05 76.9319 39.35C77.1319 39.65 77.5319 40.25 78.5319 40.45C79.5319 40.75 80.8319 40.65 82.0319 40.25C82.1319 40.25 82.1319 40.25 82.2319 40.15C82.1319 40.65 82.1319 41.05 82.1319 41.55C81.1319 53.35 90.2319 55.85 92.0319 55.95Z" fill="#CFAA59"/>
<path id="Vector_28" d="M97.132 67.05C96.232 70.15 95.732 73.85 96.032 77.65C96.032 78.05 96.132 78.55 96.132 78.95C95.932 78.65 95.732 78.25 95.532 77.95C95.032 76.95 94.732 75.75 94.632 74.25C94.332 71.45 94.732 67.85 95.932 63.95C96.232 62.95 96.632 62.05 97.032 60.95C97.432 59.85 97.832 58.75 98.232 57.55C98.532 56.55 98.832 55.45 98.932 54.15C97.932 54.75 96.932 55.25 95.832 55.65C95.732 56.05 95.632 56.55 95.632 56.95C95.332 58.05 95.032 59.15 94.732 60.25C94.432 61.25 94.032 62.45 93.832 63.45C92.932 67.75 92.932 71.45 93.632 74.45C93.932 75.95 94.432 77.25 95.132 78.25C95.532 78.85 95.932 79.35 96.332 79.85C96.832 82.75 97.532 85.45 98.132 87.95C98.532 89.45 98.832 90.95 98.932 92.35C99.132 93.75 99.232 95.05 99.132 96.25C98.932 98.65 98.432 100.55 98.032 101.75C97.632 103.05 97.232 103.75 97.232 103.75C97.232 103.75 97.632 103.15 98.232 101.85C98.832 100.65 99.632 98.75 100.032 96.35C100.232 95.05 100.332 93.75 100.232 92.25C100.132 90.75 99.932 89.25 99.632 87.65C99.232 85.65 98.732 83.55 98.332 81.35C98.332 81.35 98.332 81.35 98.432 81.35V81.25C98.432 81.25 98.432 81.25 98.332 81.25C98.132 80.05 97.932 78.85 97.832 77.55C97.532 73.95 97.832 70.55 98.532 67.45C99.232 64.35 100.232 61.65 100.832 59.25C101.432 56.85 101.632 54.85 101.632 53.55C101.632 52.15 101.532 51.45 101.532 51.45C101.532 51.45 101.632 54.55 99.932 59.05C99.232 61.25 98.032 63.85 97.132 67.05Z" fill="#CFAA59"/>
<path id="Vector_29" d="M92.032 68.55C91.832 68.05 91.632 67.35 91.632 66.55C91.632 65.75 91.732 64.85 91.932 63.85C92.332 61.75 93.332 59.35 94.132 56.35V56.25C93.832 56.35 93.432 56.35 93.032 56.45H92.932C92.632 56.45 92.232 56.55 91.932 56.45C91.532 59.25 90.932 61.65 90.832 63.75C90.732 64.85 90.832 65.85 90.932 66.75C91.132 67.55 91.432 68.25 91.732 68.75C92.132 69.25 92.432 69.45 92.632 69.65C92.832 69.85 93.032 69.85 93.032 69.85C93.032 69.85 92.932 69.75 92.732 69.55C92.532 69.35 92.232 69.05 92.032 68.55Z" fill="#CFAA59"/>
<path id="Vector_30" d="M92.9319 47.85C92.4319 47.45 91.9319 47.05 91.3319 46.85C92.0319 47.25 92.5319 47.95 92.5319 48.95C92.5319 49.75 92.1319 50.35 91.6319 50.75C91.8319 50.95 91.9319 51.25 92.0319 51.55C92.1319 51.95 92.2319 52.45 92.2319 52.95C93.4319 53.15 94.9319 52.75 94.9319 52.75C94.5319 51.45 93.9319 48.65 92.9319 47.85Z" fill="#CFAA59"/>
<path id="Vector_31" d="M98.432 50.95C98.132 50.45 97.632 49.95 97.032 49.75C96.732 49.65 96.432 49.55 96.132 49.55C95.832 49.55 95.232 49.55 94.632 48.85L95.632 52.75C95.732 52.75 97.832 51.85 98.532 51.25C98.532 51.15 98.532 51.05 98.432 50.95Z" fill="#CFAA59"/>
<path id="Vector_32" d="M83.5319 61.05V60.75C83.5319 60.55 83.5319 60.45 83.6319 60.25C83.7319 59.65 83.9319 59.15 84.2319 58.75C84.5319 58.45 84.9319 58.25 85.2319 58.15C85.5319 58.05 85.7319 58.05 85.7319 58.05C85.7319 58.05 85.5319 57.95 85.2319 57.85C84.9319 57.75 84.3319 57.65 83.7319 57.85C83.4319 57.95 83.0319 58.25 82.8319 58.55C82.5319 58.85 82.3319 59.25 82.1319 59.65C82.0319 59.85 81.9319 60.05 81.9319 60.25C81.9319 60.35 81.8319 60.45 81.8319 60.55C81.8319 60.55 81.8319 60.75 81.7319 60.75L81.6319 61.05C81.5319 61.85 81.4319 62.65 81.3319 63.45H81.4319C82.2319 63.25 83.1319 62.95 83.8319 62.75C84.0319 62.65 84.1319 62.65 84.2319 62.65C84.3319 62.65 84.4319 62.55 84.5319 62.55C84.7319 62.45 84.9319 62.35 85.1319 62.25C85.5319 62.05 85.8319 61.75 86.1319 61.45C86.4319 61.15 86.6319 60.75 86.7319 60.45C86.9319 59.75 86.8319 59.25 86.7319 58.95C86.6319 58.65 86.5319 58.45 86.5319 58.45C86.5319 58.45 86.5319 58.65 86.4319 58.95C86.3319 59.25 86.2319 59.65 85.8319 60.05C85.5319 60.45 85.0319 60.65 84.4319 60.85C84.2319 60.85 84.1319 60.95 83.9319 60.95L83.6319 61.05C83.7319 61.05 83.6319 61.15 83.5319 61.05C83.6319 61.05 83.6319 61.05 83.5319 61.05C83.6319 61.05 83.6319 61.05 83.5319 61.05Z" fill="#CFAA59"/>
<path id="Vector_33" d="M86.232 55.25C86.432 55.45 86.532 55.55 86.532 55.55C86.532 55.55 86.532 55.35 86.432 55.15C86.332 54.85 86.132 54.45 85.632 54.05C85.332 53.85 85.032 53.75 84.732 53.75C84.332 53.75 84.032 53.75 83.632 53.75C83.432 53.75 83.232 53.85 83.132 53.85C83.032 53.85 82.932 53.95 82.832 53.95C82.832 53.95 82.732 54.05 82.632 54.05L82.432 54.15C81.832 54.45 81.232 54.85 80.632 55.15C81.232 55.65 81.832 56.05 82.332 56.55C82.532 56.65 82.532 56.65 82.632 56.75C82.732 56.75 82.832 56.85 82.832 56.85C83.032 56.95 83.132 57.05 83.332 57.15C83.632 57.35 84.032 57.45 84.432 57.45C84.832 57.45 85.132 57.45 85.432 57.35C86.032 57.15 86.332 56.85 86.532 56.65C86.732 56.45 86.832 56.25 86.832 56.25C86.832 56.25 86.732 56.35 86.432 56.45C86.132 56.55 85.832 56.65 85.432 56.55C85.032 56.55 84.632 56.35 84.232 55.95C84.132 55.85 84.032 55.75 83.932 55.65L83.732 55.45C83.732 55.45 83.532 55.35 83.632 55.35V55.25C83.732 55.15 83.932 55.15 84.032 55.05C84.532 54.85 84.932 54.75 85.332 54.75C85.732 54.85 86.032 55.05 86.232 55.25Z" fill="#CFAA59"/>
<path id="Vector_34" d="M88.932 65.05C89.332 64.45 89.732 63.95 90.032 63.35L90.132 63.15C90.132 63.05 90.232 62.95 90.232 62.95C90.232 62.85 90.332 62.75 90.332 62.65C90.432 62.45 90.432 62.25 90.532 62.15C90.632 61.75 90.632 61.45 90.632 61.05C90.632 60.65 90.532 60.35 90.432 60.15C90.132 59.65 89.732 59.35 89.532 59.25C89.232 59.15 89.132 59.15 89.132 59.15C89.132 59.15 89.232 59.25 89.432 59.45C89.632 59.65 89.732 59.95 89.832 60.35C89.832 60.75 89.732 61.15 89.432 61.65C89.332 61.75 89.332 61.95 89.232 62.05L89.132 62.25L89.032 62.15L88.932 61.95C88.832 61.85 88.732 61.75 88.732 61.55C88.432 61.05 88.332 60.65 88.332 60.25C88.332 59.85 88.432 59.45 88.532 59.25C88.632 58.95 88.732 58.85 88.732 58.85C88.732 58.85 88.632 58.95 88.332 59.05C88.132 59.25 87.732 59.55 87.532 60.05C87.432 60.35 87.332 60.65 87.332 61.05C87.332 61.45 87.432 61.75 87.532 62.15C87.632 62.35 87.632 62.45 87.732 62.65C87.732 62.75 87.832 62.85 87.832 62.85C87.932 62.95 87.932 62.95 88.032 63.15C88.032 63.75 88.432 64.45 88.932 65.05Z" fill="#CFAA59"/>
<path id="Vector_35" d="M87.2319 57.15C87.2319 58.75 89.7319 58.85 89.7319 57.25C89.7319 55.55 87.2319 55.55 87.2319 57.15Z" fill="#CFAA59"/>
<path id="Vector_36" d="M102.032 13.05C101.832 14.55 101.332 16.35 100.332 17.95C99.932 18.75 99.332 19.45 98.732 20.15C98.232 20.75 97.632 21.25 97.032 21.75C96.732 22.05 96.432 22.25 96.032 22.45C95.132 23.05 94.132 23.65 93.132 24.05C92.132 24.45 91.132 24.75 90.232 24.95C88.332 25.35 86.432 25.55 84.932 25.45C83.432 25.35 82.232 25.05 81.432 24.65C80.632 24.35 80.232 24.05 80.232 24.05C80.232 24.05 80.532 24.45 81.232 24.95C81.932 25.45 83.132 26.15 84.732 26.55C86.332 26.95 88.332 27.15 90.532 26.85C91.632 26.75 92.732 26.45 93.932 26.05C95.132 25.65 96.232 25.05 97.332 24.35C97.432 24.25 97.532 24.25 97.532 24.15C98.232 23.65 98.832 23.15 99.332 22.65C100.532 21.45 101.432 20.15 102.032 18.85C103.032 16.75 103.232 14.75 103.132 13.05C103.032 11.35 102.732 10.15 102.432 9.24999C102.232 8.44999 101.932 8.04999 102.032 8.04999C102.032 8.04999 102.132 8.54999 102.132 9.44999C102.232 10.25 102.232 11.55 102.032 13.05Z" fill="#CFAA59"/>
<path id="Vector_37" d="M98.132 24.95C98.432 26.05 98.932 27.05 99.432 28.05C99.632 28.55 99.932 29.05 100.132 29.55C100.232 29.85 100.332 30.05 100.432 30.25C100.532 30.45 100.632 30.65 100.732 30.95C101.032 31.85 101.232 32.75 101.232 33.65C101.332 35.35 100.932 37.05 100.232 38.25C99.632 39.45 98.632 40.25 97.932 40.55C97.232 40.95 96.732 41.05 96.732 41.05C96.732 41.05 97.232 41.05 98.032 40.85C98.832 40.65 100.132 40.05 101.132 38.85C102.132 37.65 102.932 35.75 103.132 33.65C103.232 32.55 103.132 31.45 102.732 30.25C102.632 29.95 102.532 29.65 102.432 29.35C102.332 29.05 102.232 28.75 102.132 28.55L101.432 27.05C100.932 26.05 100.532 25.05 100.132 24.15C100.032 23.85 99.832 23.45 99.732 23.15C99.132 23.75 98.532 24.25 97.932 24.65C98.032 24.75 98.132 24.85 98.132 24.95Z" fill="#CFAA59"/>
<path id="Vector_38" d="M98.532 19.65L98.432 19.05C98.332 18.65 98.232 18.25 98.232 17.85C98.232 17.05 98.232 16.35 98.432 15.65C98.732 14.35 99.432 13.35 100.032 12.85C100.632 12.25 101.032 12.05 101.032 12.05C101.032 12.05 100.532 12.15 99.832 12.55C99.032 12.95 98.032 13.85 97.332 15.25C97.032 15.95 96.732 16.85 96.632 17.85C96.532 18.35 96.532 18.85 96.632 19.35C96.732 19.85 96.732 20.35 96.832 20.85C96.832 20.95 96.832 21.15 96.932 21.25C97.532 20.65 98.032 20.15 98.532 19.65Z" fill="#CFAA59"/>
</g>
</g>
</svg>
